<svg width="224" height="22" viewBox="0 0 224 22" fill="none" xmlns="http://www.w3.org/2000/svg">
<path d="M223 0H224V1H223V0Z" fill="#FF2287"/>
<path d="M222 0H223V1H222V0Z" fill="#FF2287"/>
<path d="M223 1H224V2H223V1Z" fill="#FF2287"/>
<path d="M222 1H223V2H222V1Z" fill="#FF2287"/>
<path d="M221 1H222V2H221V1Z" fill="#FF2287"/>
<path d="M223 2H224V3H223V2Z" fill="#FF2287"/>
<path d="M222 2H223V3H222V2Z" fill="#FF2287"/>
<path d="M221 2H222V3H221V2Z" fill="#FF2287"/>
<path d="M220 2H221V3H220V2Z" fill="#FF2287"/>
<path d="M223 3H224V4H223V3Z" fill="#FF2287"/>
<path d="M222 3H223V4H222V3Z" fill="#FF2287"/>
<path d="M221 3H222V4H221V3Z" fill="#FF2287"/>
<path d="M220 3H221V4H220V3Z" fill="#FF2287"/>
<path d="M219 3H220V4H219V3Z" fill="#FF2287"/>
<path d="M218 3H219V4H218V3Z" fill="#FF2287"/>
<path d="M217 3H218V4H217V3Z" fill="#FF2287"/>
<path d="M216 3H217V4H216V3Z" fill="#FF2287"/>
<path d="M215 3H216V4H215V3Z" fill="#FF2287"/>
<path d="M214 3H215V4H214V3Z" fill="#FF2287"/>
<path d="M213 3H214V4H213V3Z" fill="#FF2287"/>
<path d="M212 3H213V4H212V3Z" fill="#FF2287"/>
<path d="M211 3H212V4H211V3Z" fill="#FF2287"/>
<path d="M210 3H211V4H210V3Z" fill="#FF2287"/>
<path d="M209 3H210V4H209V3Z" fill="#FF2287"/>
<path d="M208 3H209V4H208V3Z" fill="#FF2287"/>
<path d="M207 3H208V4H207V3Z" fill="#FF2287"/>
<path d="M206 3H207V4H206V3Z" fill="#FF2287"/>
<path d="M205 3H206V4H205V3Z" fill="#FF2287"/>
<path d="M204 3H205V4H204V3Z" fill="#FF2287"/>
<path d="M203 3H204V4H203V3Z" fill="#FF2287"/>
<path d="M202 3H203V4H202V3Z" fill="#FF2287"/>
<path d="M201 3H202V4H201V3Z" fill="#FF2287"/>
<path d="M200 3H201V4H200V3Z" fill="#FF2287"/>
<path d="M199 3H200V4H199V3Z" fill="#FF2287"/>
<path d="M198 3H199V4H198V3Z" fill="#FF2287"/>
<path d="M197 3H198V4H197V3Z" fill="#FF2287"/>
<path d="M196 3H197V4H196V3Z" fill="#FF2287"/>
<path d="M195 3H196V4H195V3Z" fill="#FF2287"/>
<path d="M194 3H195V4H194V3Z" fill="#FF2287"/>
<path d="M193 3H194V4H193V3Z" fill="#FF2287"/>
<path d="M192 3H193V4H192V3Z" fill="#FF2287"/>
<path d="M191 3H192V4H191V3Z" fill="#FF2287"/>
<path d="M190 3H191V4H190V3Z" fill="#FF2287"/>
<path d="M189 3H190V4H189V3Z" fill="#FF2287"/>
<path d="M188 3H189V4H188V3Z" fill="#FF2287"/>
<path d="M187 3H188V4H187V3Z" fill="#FF2287"/>
<path d="M186 3H187V4H186V3Z" fill="#FF2287"/>
<path d="M185 3H186V4H185V3Z" fill="#FF2287"/>
<path d="M184 3H185V4H184V3Z" fill="#FF2287"/>
<path d="M183 3H184V4H183V3Z" fill="#FF2287"/>
<path d="M182 3H183V4H182V3Z" fill="#FF2287"/>
<path d="M181 3H182V4H181V3Z" fill="#FF2287"/>
<path d="M180 3H181V4H180V3Z" fill="#FF2287"/>
<path d="M179 3H180V4H179V3Z" fill="#FF2287"/>
<path d="M178 3H179V4H178V3Z" fill="#FF2287"/>
<path d="M177 3H178V4H177V3Z" fill="#FF2287"/>
<path d="M176 3H177V4H176V3Z" fill="#FF2287"/>
<path d="M175 3H176V4H175V3Z" fill="#FF2287"/>
<path d="M174 3H175V4H174V3Z" fill="#FF2287"/>
<path d="M173 3H174V4H173V3Z" fill="#FF2287"/>
<path d="M172 3H173V4H172V3Z" fill="#FF2287"/>
<path d="M171 3H172V4H171V3Z" fill="#FF2287"/>
<path d="M170 3H171V4H170V3Z" fill="#FF2287"/>
<path d="M169 3H170V4H169V3Z" fill="#FF2287"/>
<path d="M168 3H169V4H168V3Z" fill="#FF2287"/>
<path d="M167 3H168V4H167V3Z" fill="#FF2287"/>
<path d="M166 3H167V4H166V3Z" fill="#FF2287"/>
<path d="M165 3H166V4H165V3Z" fill="#FF2287"/>
<path d="M164 3H165V4H164V3Z" fill="#FF2287"/>
<path d="M163 3H164V4H163V3Z" fill="#FF2287"/>
<path d="M162 3H163V4H162V3Z" fill="#FF2287"/>
<path d="M161 3H162V4H161V3Z" fill="#FF2287"/>
<path d="M160 3H161V4H160V3Z" fill="#FF2287"/>
<path d="M159 3H160V4H159V3Z" fill="#FF2287"/>
<path d="M158 3H159V4H158V3Z" fill="#FF2287"/>
<path d="M157 3H158V4H157V3Z" fill="#FF2287"/>
<path d="M156 3H157V4H156V3Z" fill="#FF2287"/>
<path d="M155 3H156V4H155V3Z" fill="#FF2287"/>
<path d="M154 3H155V4H154V3Z" fill="#FF2287"/>
<path d="M153 3H154V4H153V3Z" fill="#FF2287"/>
<path d="M152 3H153V4H152V3Z" fill="#FF2287"/>
<path d="M151 3H152V4H151V3Z" fill="#FF2287"/>
<path d="M150 3H151V4H150V3Z" fill="#FF2287"/>
<path d="M149 3H150V4H149V3Z" fill="#FF2287"/>
<path d="M148 3H149V4H148V3Z" fill="#FF2287"/>
<path d="M147 3H148V4H147V3Z" fill="#FF2287"/>
<path d="M146 3H147V4H146V3Z" fill="#FF2287"/>
<path d="M145 3H146V4H145V3Z" fill="#FF2287"/>
<path d="M144 3H145V4H144V3Z" fill="#FF2287"/>
<path d="M143 3H144V4H143V3Z" fill="#FF2287"/>
<path d="M142 3H143V4H142V3Z" fill="#FF2287"/>
<path d="M141 3H142V4H141V3Z" fill="#FF2287"/>
<path d="M140 3H141V4H140V3Z" fill="#FF2287"/>
<path d="M139 3H140V4H139V3Z" fill="#FF2287"/>
<path d="M138 3H139V4H138V3Z" fill="#FF2287"/>
<path d="M137 3H138V4H137V3Z" fill="#FF2287"/>
<path d="M136 3H137V4H136V3Z" fill="#FF2287"/>
<path d="M135 3H136V4H135V3Z" fill="#FF2287"/>
<path d="M134 3H135V4H134V3Z" fill="#FF2287"/>
<path d="M133 3H134V4H133V3Z" fill="#FF2287"/>
<path d="M132 3H133V4H132V3Z" fill="#FF2287"/>
<path d="M131 3H132V4H131V3Z" fill="#FF2287"/>
<path d="M130 3H131V4H130V3Z" fill="#FF2287"/>
<path d="M129 3H130V4H129V3Z" fill="#FF2287"/>
<path d="M128 3H129V4H128V3Z" fill="#FF2287"/>
<path d="M127 3H128V4H127V3Z" fill="#FF2287"/>
<path d="M126 3H127V4H126V3Z" fill="#FF2287"/>
<path d="M125 3H126V4H125V3Z" fill="#FF2287"/>
<path d="M124 3H125V4H124V3Z" fill="#FF2287"/>
<path d="M123 3H124V4H123V3Z" fill="#FF2287"/>
<path d="M122 3H123V4H122V3Z" fill="#FF2287"/>
<path d="M121 3H122V4H121V3Z" fill="#FF2287"/>
<path d="M120 3H121V4H120V3Z" fill="#FF2287"/>
<path d="M119 3H120V4H119V3Z" fill="#FF2287"/>
<path d="M118 3H119V4H118V3Z" fill="#FF2287"/>
<path d="M117 3H118V4H117V3Z" fill="#FF2287"/>
<path d="M116 3H117V4H116V3Z" fill="#FF2287"/>
<path d="M115 3H116V4H115V3Z" fill="#FF2287"/>
<path d="M114 3H115V4H114V3Z" fill="#FF2287"/>
<path d="M113 3H114V4H113V3Z" fill="#FF2287"/>
<path d="M112 3H113V4H112V3Z" fill="#FF2287"/>
<path d="M111 3H112V4H111V3Z" fill="#FF2287"/>
<path d="M110 3H111V4H110V3Z" fill="#FF2287"/>
<path d="M109 3H110V4H109V3Z" fill="#FF2287"/>
<path d="M108 3H109V4H108V3Z" fill="#FF2287"/>
<path d="M107 3H108V4H107V3Z" fill="#FF2287"/>
<path d="M106 3H107V4H106V3Z" fill="#FF2287"/>
<path d="M105 3H106V4H105V3Z" fill="#FF2287"/>
<path d="M104 3H105V4H104V3Z" fill="#FF2287"/>
<path d="M103 3H104V4H103V3Z" fill="#FF2287"/>
<path d="M102 3H103V4H102V3Z" fill="#FF2287"/>
<path d="M101 3H102V4H101V3Z" fill="#FF2287"/>
<path d="M100 3H101V4H100V3Z" fill="#FF2287"/>
<path d="M99 3H100V4H99V3Z" fill="#FF2287"/>
<path d="M98 3H99V4H98V3Z" fill="#FF2287"/>
<path d="M97 3H98V4H97V3Z" fill="#FF2287"/>
<path d="M96 3H97V4H96V3Z" fill="#FF2287"/>
<path d="M95 3H96V4H95V3Z" fill="#FF2287"/>
<path d="M94 3H95V4H94V3Z" fill="#FF2287"/>
<path d="M93 3H94V4H93V3Z" fill="#FF2287"/>
<path d="M92 3H93V4H92V3Z" fill="#FF2287"/>
<path d="M91 3H92V4H91V3Z" fill="#FF2287"/>
<path d="M90 3H91V4H90V3Z" fill="#FF2287"/>
<path d="M89 3H90V4H89V3Z" fill="#FF2287"/>
<path d="M88 3H89V4H88V3Z" fill="#FF2287"/>
<path d="M87 3H88V4H87V3Z" fill="#FF2287"/>
<path d="M86 3H87V4H86V3Z" fill="#FF2287"/>
<path d="M85 3H86V4H85V3Z" fill="#FF2287"/>
<path d="M84 3H85V4H84V3Z" fill="#FF2287"/>
<path d="M83 3H84V4H83V3Z" fill="#FF2287"/>
<path d="M82 3H83V4H82V3Z" fill="#FF2287"/>
<path d="M81 3H82V4H81V3Z" fill="#FF2287"/>
<path d="M80 3H81V4H80V3Z" fill="#FF2287"/>
<path d="M79 3H80V4H79V3Z" fill="#FF2287"/>
<path d="M78 3H79V4H78V3Z" fill="#FF2287"/>
<path d="M77 3H78V4H77V3Z" fill="#FF2287"/>
<path d="M76 3H77V4H76V3Z" fill="#FF2287"/>
<path d="M75 3H76V4H75V3Z" fill="#FF2287"/>
<path d="M74 3H75V4H74V3Z" fill="#FF2287"/>
<path d="M73 3H74V4H73V3Z" fill="#FF2287"/>
<path d="M72 3H73V4H72V3Z" fill="#FF2287"/>
<path d="M71 3H72V4H71V3Z" fill="#FF2287"/>
<path d="M70 3H71V4H70V3Z" fill="#FF2287"/>
<path d="M69 3H70V4H69V3Z" fill="#FF2287"/>
<path d="M68 3H69V4H68V3Z" fill="#FF2287"/>
<path d="M67 3H68V4H67V3Z" fill="#FF2287"/>
<path d="M66 3H67V4H66V3Z" fill="#FF2287"/>
<path d="M65 3H66V4H65V3Z" fill="#FF2287"/>
<path d="M64 3H65V4H64V3Z" fill="#FF2287"/>
<path d="M63 3H64V4H63V3Z" fill="#FF2287"/>
<path d="M62 3H63V4H62V3Z" fill="#FF2287"/>
<path d="M61 3H62V4H61V3Z" fill="#FF2287"/>
<path d="M60 3H61V4H60V3Z" fill="#FF2287"/>
<path d="M59 3H60V4H59V3Z" fill="#FF2287"/>
<path d="M58 3H59V4H58V3Z" fill="#FF2287"/>
<path d="M57 3H58V4H57V3Z" fill="#FF2287"/>
<path d="M56 3H57V4H56V3Z" fill="#FF2287"/>
<path d="M55 3H56V4H55V3Z" fill="#FF2287"/>
<path d="M54 3H55V4H54V3Z" fill="#FF2287"/>
<path d="M53 3H54V4H53V3Z" fill="#FF2287"/>
<path d="M52 3H53V4H52V3Z" fill="#FF2287"/>
<path d="M51 3H52V4H51V3Z" fill="#FF2287"/>
<path d="M50 3H51V4H50V3Z" fill="#FF2287"/>
<path d="M49 3H50V4H49V3Z" fill="#FF2287"/>
<path d="M48 3H49V4H48V3Z" fill="#FF2287"/>
<path d="M47 3H48V4H47V3Z" fill="#FF2287"/>
<path d="M46 3H47V4H46V3Z" fill="#FF2287"/>
<path d="M45 3H46V4H45V3Z" fill="#FF2287"/>
<path d="M44 3H45V4H44V3Z" fill="#FF2287"/>
<path d="M43 3H44V4H43V3Z" fill="#FF2287"/>
<path d="M42 3H43V4H42V3Z" fill="#FF2287"/>
<path d="M41 3H42V4H41V3Z" fill="#FF2287"/>
<path d="M40 3H41V4H40V3Z" fill="#FF2287"/>
<path d="M39 3H40V4H39V3Z" fill="#FF2287"/>
<path d="M38 3H39V4H38V3Z" fill="#FF2287"/>
<path d="M37 3H38V4H37V3Z" fill="#FF2287"/>
<path d="M36 3H37V4H36V3Z" fill="#FF2287"/>
<path d="M35 3H36V4H35V3Z" fill="#FF2287"/>
<path d="M34 3H35V4H34V3Z" fill="#FF2287"/>
<path d="M33 3H34V4H33V3Z" fill="#FF2287"/>
<path d="M32 3H33V4H32V3Z" fill="#FF2287"/>
<path d="M31 3H32V4H31V3Z" fill="#FF2287"/>
<path d="M30 3H31V4H30V3Z" fill="#FF2287"/>
<path d="M29 3H30V4H29V3Z" fill="#FF2287"/>
<path d="M28 3H29V4H28V3Z" fill="#FF2287"/>
<path d="M27 3H28V4H27V3Z" fill="#FF2287"/>
<path d="M26 3H27V4H26V3Z" fill="#FF2287"/>
<path d="M25 3H26V4H25V3Z" fill="#FF2287"/>
<path d="M24 3H25V4H24V3Z" fill="#FF2287"/>
<path d="M23 3H24V4H23V3Z" fill="#FF2287"/>
<path d="M22 3H23V4H22V3Z" fill="#FF2287"/>
<path d="M21 3H22V4H21V3Z" fill="#FF2287"/>
<path d="M20 3H21V4H20V3Z" fill="#FF2287"/>
<path d="M19 3H20V4H19V3Z" fill="#FF2287"/>
<path d="M18 3H19V4H18V3Z" fill="#FF2287"/>
<path d="M17 3H18V4H17V3Z" fill="#FF2287"/>
<path d="M16 3H17V4H16V3Z" fill="#FF2287"/>
<path d="M15 3H16V4H15V3Z" fill="#FF2287"/>
<path d="M14 3H15V4H14V3Z" fill="#FF2287"/>
<path d="M13 3H14V4H13V3Z" fill="#FF2287"/>
<path d="M12 3H13V4H12V3Z" fill="#FF2287"/>
<path d="M11 3H12V4H11V3Z" fill="#FF2287"/>
<path d="M10 3H11V4H10V3Z" fill="#FF2287"/>
<path d="M9 3H10V4H9V3Z" fill="#FF2287"/>
<path d="M8 3H9V4H8V3Z" fill="#FF2287"/>
<path d="M7 3H8V4H7V3Z" fill="#FF2287"/>
<path d="M6 3H7V4H6V3Z" fill="#FF2287"/>
<path d="M5 3H6V4H5V3Z" fill="#FF2287"/>
<path d="M4 3H5V4H4V3Z" fill="#FF2287"/>
<path d="M3 3H4V4H3V3Z" fill="#FF2287"/>
<path d="M2 3H3V4H2V3Z" fill="#FF2287"/>
<path d="M1 3H2V4H1V3Z" fill="#FF2287"/>
<path d="M0 3H1V4H0V3Z" fill="#FF2287"/>
<path d="M223 4H224V5H223V4Z" fill="#FF2287"/>
<path d="M222 4H223V5H222V4Z" fill="#FF2287"/>
<path d="M220 4H221V5H220V4Z" fill="#FF2287"/>
<path d="M219 4H220V5H219V4Z" fill="#FF2287"/>
<path d="M218 4H219V5H218V4Z" fill="#FF2287"/>
<path d="M217 4H218V5H217V4Z" fill="#FF2287"/>
<path d="M216 4H217V5H216V4Z" fill="#FF2287"/>
<path d="M215 4H216V5H215V4Z" fill="#FF2287"/>
<path d="M214 4H215V5H214V4Z" fill="#FF2287"/>
<path d="M213 4H214V5H213V4Z" fill="#FF2287"/>
<path d="M212 4H213V5H212V4Z" fill="#FF2287"/>
<path d="M211 4H212V5H211V4Z" fill="#FF2287"/>
<path d="M210 4H211V5H210V4Z" fill="#FF2287"/>
<path d="M209 4H210V5H209V4Z" fill="#FF2287"/>
<path d="M208 4H209V5H208V4Z" fill="#FF2287"/>
<path d="M207 4H208V5H207V4Z" fill="#FF2287"/>
<path d="M206 4H207V5H206V4Z" fill="#FF2287"/>
<path d="M205 4H206V5H205V4Z" fill="#FF2287"/>
<path d="M204 4H205V5H204V4Z" fill="#FF2287"/>
<path d="M203 4H204V5H203V4Z" fill="#FF2287"/>
<path d="M202 4H203V5H202V4Z" fill="#FF2287"/>
<path d="M201 4H202V5H201V4Z" fill="#FF2287"/>
<path d="M200 4H201V5H200V4Z" fill="#FF2287"/>
<path d="M199 4H200V5H199V4Z" fill="#FF2287"/>
<path d="M198 4H199V5H198V4Z" fill="#FF2287"/>
<path d="M197 4H198V5H197V4Z" fill="#FF2287"/>
<path d="M196 4H197V5H196V4Z" fill="#FF2287"/>
<path d="M195 4H196V5H195V4Z" fill="#FF2287"/>
<path d="M194 4H195V5H194V4Z" fill="#FF2287"/>
<path d="M193 4H194V5H193V4Z" fill="#FF2287"/>
<path d="M192 4H193V5H192V4Z" fill="#FF2287"/>
<path d="M191 4H192V5H191V4Z" fill="#FF2287"/>
<path d="M190 4H191V5H190V4Z" fill="#FF2287"/>
<path d="M189 4H190V5H189V4Z" fill="#FF2287"/>
<path d="M188 4H189V5H188V4Z" fill="#FF2287"/>
<path d="M187 4H188V5H187V4Z" fill="#FF2287"/>
<path d="M186 4H187V5H186V4Z" fill="#FF2287"/>
<path d="M185 4H186V5H185V4Z" fill="#FF2287"/>
<path d="M184 4H185V5H184V4Z" fill="#FF2287"/>
<path d="M183 4H184V5H183V4Z" fill="#FF2287"/>
<path d="M182 4H183V5H182V4Z" fill="#FF2287"/>
<path d="M181 4H182V5H181V4Z" fill="#FF2287"/>
<path d="M180 4H181V5H180V4Z" fill="#FF2287"/>
<path d="M179 4H180V5H179V4Z" fill="#FF2287"/>
<path d="M178 4H179V5H178V4Z" fill="#FF2287"/>
<path d="M177 4H178V5H177V4Z" fill="#FF2287"/>
<path d="M176 4H177V5H176V4Z" fill="#FF2287"/>
<path d="M175 4H176V5H175V4Z" fill="#FF2287"/>
<path d="M174 4H175V5H174V4Z" fill="#FF2287"/>
<path d="M173 4H174V5H173V4Z" fill="#FF2287"/>
<path d="M172 4H173V5H172V4Z" fill="#FF2287"/>
<path d="M171 4H172V5H171V4Z" fill="#FF2287"/>
<path d="M170 4H171V5H170V4Z" fill="#FF2287"/>
<path d="M169 4H170V5H169V4Z" fill="#FF2287"/>
<path d="M168 4H169V5H168V4Z" fill="#FF2287"/>
<path d="M167 4H168V5H167V4Z" fill="#FF2287"/>
<path d="M166 4H167V5H166V4Z" fill="#FF2287"/>
<path d="M165 4H166V5H165V4Z" fill="#FF2287"/>
<path d="M164 4H165V5H164V4Z" fill="#FF2287"/>
<path d="M163 4H164V5H163V4Z" fill="#FF2287"/>
<path d="M162 4H163V5H162V4Z" fill="#FF2287"/>
<path d="M161 4H162V5H161V4Z" fill="#FF2287"/>
<path d="M160 4H161V5H160V4Z" fill="#FF2287"/>
<path d="M159 4H160V5H159V4Z" fill="#FF2287"/>
<path d="M158 4H159V5H158V4Z" fill="#FF2287"/>
<path d="M157 4H158V5H157V4Z" fill="#FF2287"/>
<path d="M156 4H157V5H156V4Z" fill="#FF2287"/>
<path d="M155 4H156V5H155V4Z" fill="#FF2287"/>
<path d="M154 4H155V5H154V4Z" fill="#FF2287"/>
<path d="M153 4H154V5H153V4Z" fill="#FF2287"/>
<path d="M152 4H153V5H152V4Z" fill="#FF2287"/>
<path d="M151 4H152V5H151V4Z" fill="#FF2287"/>
<path d="M150 4H151V5H150V4Z" fill="#FF2287"/>
<path d="M149 4H150V5H149V4Z" fill="#FF2287"/>
<path d="M148 4H149V5H148V4Z" fill="#FF2287"/>
<path d="M147 4H148V5H147V4Z" fill="#FF2287"/>
<path d="M146 4H147V5H146V4Z" fill="#FF2287"/>
<path d="M145 4H146V5H145V4Z" fill="#FF2287"/>
<path d="M144 4H145V5H144V4Z" fill="#FF2287"/>
<path d="M143 4H144V5H143V4Z" fill="#FF2287"/>
<path d="M142 4H143V5H142V4Z" fill="#FF2287"/>
<path d="M141 4H142V5H141V4Z" fill="#FF2287"/>
<path d="M140 4H141V5H140V4Z" fill="#FF2287"/>
<path d="M139 4H140V5H139V4Z" fill="#FF2287"/>
<path d="M138 4H139V5H138V4Z" fill="#FF2287"/>
<path d="M137 4H138V5H137V4Z" fill="#FF2287"/>
<path d="M136 4H137V5H136V4Z" fill="#FF2287"/>
<path d="M135 4H136V5H135V4Z" fill="#FF2287"/>
<path d="M134 4H135V5H134V4Z" fill="#FF2287"/>
<path d="M133 4H134V5H133V4Z" fill="#FF2287"/>
<path d="M132 4H133V5H132V4Z" fill="#FF2287"/>
<path d="M131 4H132V5H131V4Z" fill="#FF2287"/>
<path d="M130 4H131V5H130V4Z" fill="#FF2287"/>
<path d="M129 4H130V5H129V4Z" fill="#FF2287"/>
<path d="M128 4H129V5H128V4Z" fill="#FF2287"/>
<path d="M127 4H128V5H127V4Z" fill="#FF2287"/>
<path d="M126 4H127V5H126V4Z" fill="#FF2287"/>
<path d="M125 4H126V5H125V4Z" fill="#FF2287"/>
<path d="M124 4H125V5H124V4Z" fill="#FF2287"/>
<path d="M123 4H124V5H123V4Z" fill="#FF2287"/>
<path d="M122 4H123V5H122V4Z" fill="#FF2287"/>
<path d="M121 4H122V5H121V4Z" fill="#FF2287"/>
<path d="M120 4H121V5H120V4Z" fill="#FF2287"/>
<path d="M119 4H120V5H119V4Z" fill="#FF2287"/>
<path d="M118 4H119V5H118V4Z" fill="#FF2287"/>
<path d="M117 4H118V5H117V4Z" fill="#FF2287"/>
<path d="M116 4H117V5H116V4Z" fill="#FF2287"/>
<path d="M115 4H116V5H115V4Z" fill="#FF2287"/>
<path d="M114 4H115V5H114V4Z" fill="#FF2287"/>
<path d="M113 4H114V5H113V4Z" fill="#FF2287"/>
<path d="M112 4H113V5H112V4Z" fill="#FF2287"/>
<path d="M111 4H112V5H111V4Z" fill="#FF2287"/>
<path d="M110 4H111V5H110V4Z" fill="#FF2287"/>
<path d="M109 4H110V5H109V4Z" fill="#FF2287"/>
<path d="M108 4H109V5H108V4Z" fill="#FF2287"/>
<path d="M107 4H108V5H107V4Z" fill="#FF2287"/>
<path d="M106 4H107V5H106V4Z" fill="#FF2287"/>
<path d="M105 4H106V5H105V4Z" fill="#FF2287"/>
<path d="M104 4H105V5H104V4Z" fill="#FF2287"/>
<path d="M103 4H104V5H103V4Z" fill="#FF2287"/>
<path d="M102 4H103V5H102V4Z" fill="#FF2287"/>
<path d="M101 4H102V5H101V4Z" fill="#FF2287"/>
<path d="M100 4H101V5H100V4Z" fill="#FF2287"/>
<path d="M99 4H100V5H99V4Z" fill="#FF2287"/>
<path d="M98 4H99V5H98V4Z" fill="#FF2287"/>
<path d="M97 4H98V5H97V4Z" fill="#FF2287"/>
<path d="M96 4H97V5H96V4Z" fill="#FF2287"/>
<path d="M95 4H96V5H95V4Z" fill="#FF2287"/>
<path d="M94 4H95V5H94V4Z" fill="#FF2287"/>
<path d="M93 4H94V5H93V4Z" fill="#FF2287"/>
<path d="M92 4H93V5H92V4Z" fill="#FF2287"/>
<path d="M91 4H92V5H91V4Z" fill="#FF2287"/>
<path d="M90 4H91V5H90V4Z" fill="#FF2287"/>
<path d="M89 4H90V5H89V4Z" fill="#FF2287"/>
<path d="M88 4H89V5H88V4Z" fill="#FF2287"/>
<path d="M87 4H88V5H87V4Z" fill="#FF2287"/>
<path d="M86 4H87V5H86V4Z" fill="#FF2287"/>
<path d="M85 4H86V5H85V4Z" fill="#FF2287"/>
<path d="M84 4H85V5H84V4Z" fill="#FF2287"/>
<path d="M83 4H84V5H83V4Z" fill="#FF2287"/>
<path d="M82 4H83V5H82V4Z" fill="#FF2287"/>
<path d="M81 4H82V5H81V4Z" fill="#FF2287"/>
<path d="M80 4H81V5H80V4Z" fill="#FF2287"/>
<path d="M79 4H80V5H79V4Z" fill="#FF2287"/>
<path d="M78 4H79V5H78V4Z" fill="#FF2287"/>
<path d="M77 4H78V5H77V4Z" fill="#FF2287"/>
<path d="M76 4H77V5H76V4Z" fill="#FF2287"/>
<path d="M75 4H76V5H75V4Z" fill="#FF2287"/>
<path d="M74 4H75V5H74V4Z" fill="#FF2287"/>
<path d="M73 4H74V5H73V4Z" fill="#FF2287"/>
<path d="M72 4H73V5H72V4Z" fill="#FF2287"/>
<path d="M71 4H72V5H71V4Z" fill="#FF2287"/>
<path d="M70 4H71V5H70V4Z" fill="#FF2287"/>
<path d="M69 4H70V5H69V4Z" fill="#FF2287"/>
<path d="M68 4H69V5H68V4Z" fill="#FF2287"/>
<path d="M67 4H68V5H67V4Z" fill="#FF2287"/>
<path d="M66 4H67V5H66V4Z" fill="#FF2287"/>
<path d="M65 4H66V5H65V4Z" fill="#FF2287"/>
<path d="M64 4H65V5H64V4Z" fill="#FF2287"/>
<path d="M63 4H64V5H63V4Z" fill="#FF2287"/>
<path d="M62 4H63V5H62V4Z" fill="#FF2287"/>
<path d="M61 4H62V5H61V4Z" fill="#FF2287"/>
<path d="M60 4H61V5H60V4Z" fill="#FF2287"/>
<path d="M59 4H60V5H59V4Z" fill="#FF2287"/>
<path d="M58 4H59V5H58V4Z" fill="#FF2287"/>
<path d="M57 4H58V5H57V4Z" fill="#FF2287"/>
<path d="M56 4H57V5H56V4Z" fill="#FF2287"/>
<path d="M55 4H56V5H55V4Z" fill="#FF2287"/>
<path d="M54 4H55V5H54V4Z" fill="#FF2287"/>
<path d="M53 4H54V5H53V4Z" fill="#FF2287"/>
<path d="M52 4H53V5H52V4Z" fill="#FF2287"/>
<path d="M51 4H52V5H51V4Z" fill="#FF2287"/>
<path d="M50 4H51V5H50V4Z" fill="#FF2287"/>
<path d="M49 4H50V5H49V4Z" fill="#FF2287"/>
<path d="M48 4H49V5H48V4Z" fill="#FF2287"/>
<path d="M47 4H48V5H47V4Z" fill="#FF2287"/>
<path d="M46 4H47V5H46V4Z" fill="#FF2287"/>
<path d="M45 4H46V5H45V4Z" fill="#FF2287"/>
<path d="M44 4H45V5H44V4Z" fill="#FF2287"/>
<path d="M43 4H44V5H43V4Z" fill="#FF2287"/>
<path d="M42 4H43V5H42V4Z" fill="#FF2287"/>
<path d="M41 4H42V5H41V4Z" fill="#FF2287"/>
<path d="M40 4H41V5H40V4Z" fill="#FF2287"/>
<path d="M39 4H40V5H39V4Z" fill="#FF2287"/>
<path d="M38 4H39V5H38V4Z" fill="#FF2287"/>
<path d="M37 4H38V5H37V4Z" fill="#FF2287"/>
<path d="M36 4H37V5H36V4Z" fill="#FF2287"/>
<path d="M35 4H36V5H35V4Z" fill="#FF2287"/>
<path d="M34 4H35V5H34V4Z" fill="#FF2287"/>
<path d="M33 4H34V5H33V4Z" fill="#FF2287"/>
<path d="M32 4H33V5H32V4Z" fill="#FF2287"/>
<path d="M31 4H32V5H31V4Z" fill="#FF2287"/>
<path d="M30 4H31V5H30V4Z" fill="#FF2287"/>
<path d="M29 4H30V5H29V4Z" fill="#FF2287"/>
<path d="M28 4H29V5H28V4Z" fill="#FF2287"/>
<path d="M27 4H28V5H27V4Z" fill="#FF2287"/>
<path d="M26 4H27V5H26V4Z" fill="#FF2287"/>
<path d="M25 4H26V5H25V4Z" fill="#FF2287"/>
<path d="M24 4H25V5H24V4Z" fill="#FF2287"/>
<path d="M23 4H24V5H23V4Z" fill="#FF2287"/>
<path d="M22 4H23V5H22V4Z" fill="#FF2287"/>
<path d="M21 4H22V5H21V4Z" fill="#FF2287"/>
<path d="M20 4H21V5H20V4Z" fill="#FF2287"/>
<path d="M19 4H20V5H19V4Z" fill="#FF2287"/>
<path d="M18 4H19V5H18V4Z" fill="#FF2287"/>
<path d="M17 4H18V5H17V4Z" fill="#FF2287"/>
<path d="M16 4H17V5H16V4Z" fill="#FF2287"/>
<path d="M15 4H16V5H15V4Z" fill="#FF2287"/>
<path d="M14 4H15V5H14V4Z" fill="#FF2287"/>
<path d="M13 4H14V5H13V4Z" fill="#FF2287"/>
<path d="M12 4H13V5H12V4Z" fill="#FF2287"/>
<path d="M11 4H12V5H11V4Z" fill="#FF2287"/>
<path d="M10 4H11V5H10V4Z" fill="#FF2287"/>
<path d="M9 4H10V5H9V4Z" fill="#FF2287"/>
<path d="M8 4H9V5H8V4Z" fill="#FF2287"/>
<path d="M7 4H8V5H7V4Z" fill="#FF2287"/>
<path d="M6 4H7V5H6V4Z" fill="#FF2287"/>
<path d="M5 4H6V5H5V4Z" fill="#FF2287"/>
<path d="M4 4H5V5H4V4Z" fill="#FF2287"/>
<path d="M3 4H4V5H3V4Z" fill="#FF2287"/>
<path d="M2 4H3V5H2V4Z" fill="#FF2287"/>
<path d="M1 4H2V5H1V4Z" fill="#FF2287"/>
<path d="M0 4H1V5H0V4Z" fill="#FF2287"/>
<path d="M223 5H224V6H223V5Z" fill="#FF2287"/>
<path d="M222 5H223V6H222V5Z" fill="#FF2287"/>
<path d="M3 5H4V6H3V5Z" fill="#FF2287"/>
<path d="M2 5H3V6H2V5Z" fill="#FF2287"/>
<path d="M1 5H2V6H1V5Z" fill="#FF2287"/>
<path d="M223 6H224V7H223V6Z" fill="#FF2287"/>
<path d="M222 6H223V7H222V6Z" fill="#FF2287"/>
<path d="M4 6H5V7H4V6Z" fill="#FF2287"/>
<path d="M3 6H4V7H3V6Z" fill="#FF2287"/>
<path d="M2 6H3V7H2V6Z" fill="#FF2287"/>
<path d="M223 7H224V8H223V7Z" fill="#FF2287"/>
<path d="M222 7H223V8H222V7Z" fill="#FF2287"/>
<path d="M209 7H210V8H209V7Z" fill="#AB1741"/>
<path d="M208 7H209V8H208V7Z" fill="#AB1741"/>
<path d="M204 7H205V8H204V7Z" fill="#AB1741"/>
<path d="M203 7H204V8H203V7Z" fill="#AB1741"/>
<path d="M5 7H6V8H5V7Z" fill="#FF2287"/>
<path d="M4 7H5V8H4V7Z" fill="#FF2287"/>
<path d="M3 7H4V8H3V7Z" fill="#FF2287"/>
<path d="M223 8H224V9H223V8Z" fill="#FF2287"/>
<path d="M222 8H223V9H222V8Z" fill="#FF2287"/>
<path d="M210 8H211V9H210V8Z" fill="#AB1741"/>
<path d="M209 8H210V9H209V8Z" fill="#AB1741"/>
<path d="M208 8H209V9H208V8Z" fill="#AB1741"/>
<path d="M207 8H208V9H207V8Z" fill="#AB1741"/>
<path d="M205 8H206V9H205V8Z" fill="#AB1741"/>
<path d="M204 8H205V9H204V8Z" fill="#AB1741"/>
<path d="M203 8H204V9H203V8Z" fill="#AB1741"/>
<path d="M202 8H203V9H202V8Z" fill="#AB1741"/>
<path d="M6 8H7V9H6V8Z" fill="#FF2287"/>
<path d="M5 8H6V9H5V8Z" fill="#FF2287"/>
<path d="M4 8H5V9H4V8Z" fill="#FF2287"/>
<path d="M223 9H224V10H223V9Z" fill="#FF2287"/>
<path d="M222 9H223V10H222V9Z" fill="#FF2287"/>
<path d="M211 9H212V10H211V9Z" fill="#AB1741"/>
<path d="M210 9H211V10H210V9Z" fill="#AB1741"/>
<path d="M209 9H210V10H209V9Z" fill="#AB1741"/>
<path d="M208 9H209V10H208V9Z" fill="#AB1741"/>
<path d="M207 9H208V10H207V9Z" fill="#AB1741"/>
<path d="M206 9H207V10H206V9Z" fill="#AB1741"/>
<path d="M205 9H206V10H205V9Z" fill="#AB1741"/>
<path d="M204 9H205V10H204V9Z" fill="#AB1741"/>
<path d="M203 9H204V10H203V9Z" fill="#AB1741"/>
<path d="M202 9H203V10H202V9Z" fill="#AB1741"/>
<path d="M201 9H202V10H201V9Z" fill="#AB1741"/>
<path d="M7 9H8V10H7V9Z" fill="#FF2287"/>
<path d="M6 9H7V10H6V9Z" fill="#FF2287"/>
<path d="M5 9H6V10H5V9Z" fill="#FF2287"/>
<path d="M223 10H224V11H223V10Z" fill="#FF2287"/>
<path d="M222 10H223V11H222V10Z" fill="#FF2287"/>
<path d="M212 10H213V11H212V10Z" fill="#AB1741"/>
<path d="M211 10H212V11H211V10Z" fill="#AB1741"/>
<path d="M210 10H211V11H210V10Z" fill="#AB1741"/>
<path d="M209 10H210V11H209V10Z" fill="#AB1741"/>
<path d="M208 10H209V11H208V10Z" fill="#AB1741"/>
<path d="M207 10H208V11H207V10Z" fill="#AB1741"/>
<path d="M206 10H207V11H206V10Z" fill="#AB1741"/>
<path d="M205 10H206V11H205V10Z" fill="#AB1741"/>
<path d="M204 10H205V11H204V10Z" fill="#AB1741"/>
<path d="M203 10H204V11H203V10Z" fill="#AB1741"/>
<path d="M202 10H203V11H202V10Z" fill="#AB1741"/>
<path d="M201 10H202V11H201V10Z" fill="#AB1741"/>
<path d="M200 10H201V11H200V10Z" fill="#AB1741"/>
<path d="M8 10H9V11H8V10Z" fill="#FF2287"/>
<path d="M7 10H8V11H7V10Z" fill="#FF2287"/>
<path d="M6 10H7V11H6V10Z" fill="#FF2287"/>
<path d="M223 11H224V12H223V11Z" fill="#FF2287"/>
<path d="M222 11H223V12H222V11Z" fill="#FF2287"/>
<path d="M211 11H212V12H211V11Z" fill="#AB1741"/>
<path d="M210 11H211V12H210V11Z" fill="#AB1741"/>
<path d="M209 11H210V12H209V11Z" fill="#AB1741"/>
<path d="M208 11H209V12H208V11Z" fill="#AB1741"/>
<path d="M207 11H208V12H207V11Z" fill="#AB1741"/>
<path d="M206 11H207V12H206V11Z" fill="#AB1741"/>
<path d="M205 11H206V12H205V11Z" fill="#AB1741"/>
<path d="M204 11H205V12H204V11Z" fill="#AB1741"/>
<path d="M203 11H204V12H203V11Z" fill="#AB1741"/>
<path d="M202 11H203V12H202V11Z" fill="#AB1741"/>
<path d="M201 11H202V12H201V11Z" fill="#AB1741"/>
<path d="M9 11H10V12H9V11Z" fill="#FF2287"/>
<path d="M8 11H9V12H8V11Z" fill="#FF2287"/>
<path d="M7 11H8V12H7V11Z" fill="#FF2287"/>
<path d="M223 12H224V13H223V12Z" fill="#FF2287"/>
<path d="M222 12H223V13H222V12Z" fill="#FF2287"/>
<path d="M210 12H211V13H210V12Z" fill="#AB1741"/>
<path d="M209 12H210V13H209V12Z" fill="#AB1741"/>
<path d="M208 12H209V13H208V12Z" fill="#AB1741"/>
<path d="M207 12H208V13H207V12Z" fill="#AB1741"/>
<path d="M206 12H207V13H206V12Z" fill="#AB1741"/>
<path d="M205 12H206V13H205V12Z" fill="#AB1741"/>
<path d="M204 12H205V13H204V12Z" fill="#AB1741"/>
<path d="M203 12H204V13H203V12Z" fill="#AB1741"/>
<path d="M202 12H203V13H202V12Z" fill="#AB1741"/>
<path d="M10 12H11V13H10V12Z" fill="#FF2287"/>
<path d="M9 12H10V13H9V12Z" fill="#FF2287"/>
<path d="M8 12H9V13H8V12Z" fill="#FF2287"/>
<path d="M223 13H224V14H223V13Z" fill="#FF2287"/>
<path d="M222 13H223V14H222V13Z" fill="#FF2287"/>
<path d="M209 13H210V14H209V13Z" fill="#AB1741"/>
<path d="M208 13H209V14H208V13Z" fill="#AB1741"/>
<path d="M207 13H208V14H207V13Z" fill="#AB1741"/>
<path d="M206 13H207V14H206V13Z" fill="#AB1741"/>
<path d="M205 13H206V14H205V13Z" fill="#AB1741"/>
<path d="M204 13H205V14H204V13Z" fill="#AB1741"/>
<path d="M203 13H204V14H203V13Z" fill="#AB1741"/>
<path d="M11 13H12V14H11V13Z" fill="#FF2287"/>
<path d="M10 13H11V14H10V13Z" fill="#FF2287"/>
<path d="M9 13H10V14H9V13Z" fill="#FF2287"/>
<path d="M223 14H224V15H223V14Z" fill="#FF2287"/>
<path d="M222 14H223V15H222V14Z" fill="#FF2287"/>
<path d="M208 14H209V15H208V14Z" fill="#AB1741"/>
<path d="M207 14H208V15H207V14Z" fill="#AB1741"/>
<path d="M206 14H207V15H206V14Z" fill="#AB1741"/>
<path d="M205 14H206V15H205V14Z" fill="#AB1741"/>
<path d="M204 14H205V15H204V14Z" fill="#AB1741"/>
<path d="M12 14H13V15H12V14Z" fill="#FF2287"/>
<path d="M11 14H12V15H11V14Z" fill="#FF2287"/>
<path d="M10 14H11V15H10V14Z" fill="#FF2287"/>
<path d="M223 15H224V16H223V15Z" fill="#FF2287"/>
<path d="M222 15H223V16H222V15Z" fill="#FF2287"/>
<path d="M207 15H208V16H207V15Z" fill="#AB1741"/>
<path d="M206 15H207V16H206V15Z" fill="#AB1741"/>
<path d="M205 15H206V16H205V15Z" fill="#AB1741"/>
<path d="M13 15H14V16H13V15Z" fill="#FF2287"/>
<path d="M12 15H13V16H12V15Z" fill="#FF2287"/>
<path d="M11 15H12V16H11V15Z" fill="#FF2287"/>
<path d="M223 16H224V17H223V16Z" fill="#FF2287"/>
<path d="M222 16H223V17H222V16Z" fill="#FF2287"/>
<path d="M206 16H207V17H206V16Z" fill="#AB1741"/>
<path d="M14 16H15V17H14V16Z" fill="#FF2287"/>
<path d="M13 16H14V17H13V16Z" fill="#FF2287"/>
<path d="M12 16H13V17H12V16Z" fill="#FF2287"/>
<path d="M223 17H224V18H223V17Z" fill="#FF2287"/>
<path d="M222 17H223V18H222V17Z" fill="#FF2287"/>
<path d="M15 17H16V18H15V17Z" fill="#FF2287"/>
<path d="M14 17H15V18H14V17Z" fill="#FF2287"/>
<path d="M13 17H14V18H13V17Z" fill="#FF2287"/>
<path d="M223 18H224V19H223V18Z" fill="#FF2287"/>
<path d="M222 18H223V19H222V18Z" fill="#FF2287"/>
<path d="M16 18H17V19H16V18Z" fill="#FF2287"/>
<path d="M15 18H16V19H15V18Z" fill="#FF2287"/>
<path d="M14 18H15V19H14V18Z" fill="#FF2287"/>
<path d="M223 19H224V20H223V19Z" fill="#FF2287"/>
<path d="M222 19H223V20H222V19Z" fill="#FF2287"/>
<path d="M17 19H18V20H17V19Z" fill="#FF2287"/>
<path d="M16 19H17V20H16V19Z" fill="#FF2287"/>
<path d="M15 19H16V20H15V19Z" fill="#FF2287"/>
<path d="M223 20H224V21H223V20Z" fill="#FF2287"/>
<path d="M222 20H223V21H222V20Z" fill="#FF2287"/>
<path d="M215 20H222V21H215V20Z" fill="#FF2287"/>
<path d="M214 20H215V21H214V20Z" fill="#FF2287"/>
<path d="M213 20H214V21H213V20Z" fill="#FF2287"/>
<path d="M212 20H213V21H212V20Z" fill="#FF2287"/>
<path d="M211 20H212V21H211V20Z" fill="#FF2287"/>
<path d="M210 20H211V21H210V20Z" fill="#FF2287"/>
<path d="M209 20H210V21H209V20Z" fill="#FF2287"/>
<path d="M208 20H209V21H208V20Z" fill="#FF2287"/>
<path d="M207 20H208V21H207V20Z" fill="#FF2287"/>
<path d="M206 20H207V21H206V20Z" fill="#FF2287"/>
<path d="M205 20H206V21H205V20Z" fill="#FF2287"/>
<path d="M204 20H205V21H204V20Z" fill="#FF2287"/>
<path d="M203 20H204V21H203V20Z" fill="#FF2287"/>
<path d="M202 20H203V21H202V20Z" fill="#FF2287"/>
<path d="M201 20H202V21H201V20Z" fill="#FF2287"/>
<path d="M200 20H201V21H200V20Z" fill="#FF2287"/>
<path d="M199 20H200V21H199V20Z" fill="#FF2287"/>
<path d="M198 20H199V21H198V20Z" fill="#FF2287"/>
<path d="M197 20H198V21H197V20Z" fill="#FF2287"/>
<path d="M196 20H197V21H196V20Z" fill="#FF2287"/>
<path d="M195 20H196V21H195V20Z" fill="#FF2287"/>
<path d="M194 20H195V21H194V20Z" fill="#FF2287"/>
<path d="M193 20H194V21H193V20Z" fill="#FF2287"/>
<path d="M192 20H193V21H192V20Z" fill="#FF2287"/>
<path d="M191 20H192V21H191V20Z" fill="#FF2287"/>
<path d="M190 20H191V21H190V20Z" fill="#FF2287"/>
<path d="M189 20H190V21H189V20Z" fill="#FF2287"/>
<path d="M188 20H189V21H188V20Z" fill="#FF2287"/>
<path d="M187 20H188V21H187V20Z" fill="#FF2287"/>
<path d="M186 20H187V21H186V20Z" fill="#FF2287"/>
<path d="M185 20H186V21H185V20Z" fill="#FF2287"/>
<path d="M184 20H185V21H184V20Z" fill="#FF2287"/>
<path d="M183 20H184V21H183V20Z" fill="#FF2287"/>
<path d="M182 20H183V21H182V20Z" fill="#FF2287"/>
<path d="M181 20H182V21H181V20Z" fill="#FF2287"/>
<path d="M180 20H181V21H180V20Z" fill="#FF2287"/>
<path d="M179 20H180V21H179V20Z" fill="#FF2287"/>
<path d="M178 20H179V21H178V20Z" fill="#FF2287"/>
<path d="M177 20H178V21H177V20Z" fill="#FF2287"/>
<path d="M176 20H177V21H176V20Z" fill="#FF2287"/>
<path d="M175 20H176V21H175V20Z" fill="#FF2287"/>
<path d="M174 20H175V21H174V20Z" fill="#FF2287"/>
<path d="M173 20H174V21H173V20Z" fill="#FF2287"/>
<path d="M172 20H173V21H172V20Z" fill="#FF2287"/>
<path d="M171 20H172V21H171V20Z" fill="#FF2287"/>
<path d="M170 20H171V21H170V20Z" fill="#FF2287"/>
<path d="M169 20H170V21H169V20Z" fill="#FF2287"/>
<path d="M168 20H169V21H168V20Z" fill="#FF2287"/>
<path d="M167 20H168V21H167V20Z" fill="#FF2287"/>
<path d="M166 20H167V21H166V20Z" fill="#FF2287"/>
<path d="M165 20H166V21H165V20Z" fill="#FF2287"/>
<path d="M164 20H165V21H164V20Z" fill="#FF2287"/>
<path d="M163 20H164V21H163V20Z" fill="#FF2287"/>
<path d="M162 20H163V21H162V20Z" fill="#FF2287"/>
<path d="M161 20H162V21H161V20Z" fill="#FF2287"/>
<path d="M160 20H161V21H160V20Z" fill="#FF2287"/>
<path d="M159 20H160V21H159V20Z" fill="#FF2287"/>
<path d="M158 20H159V21H158V20Z" fill="#FF2287"/>
<path d="M157 20H158V21H157V20Z" fill="#FF2287"/>
<path d="M156 20H157V21H156V20Z" fill="#FF2287"/>
<path d="M155 20H156V21H155V20Z" fill="#FF2287"/>
<path d="M154 20H155V21H154V20Z" fill="#FF2287"/>
<path d="M153 20H154V21H153V20Z" fill="#FF2287"/>
<path d="M152 20H153V21H152V20Z" fill="#FF2287"/>
<path d="M151 20H152V21H151V20Z" fill="#FF2287"/>
<path d="M150 20H151V21H150V20Z" fill="#FF2287"/>
<path d="M149 20H150V21H149V20Z" fill="#FF2287"/>
<path d="M148 20H149V21H148V20Z" fill="#FF2287"/>
<path d="M147 20H148V21H147V20Z" fill="#FF2287"/>
<path d="M146 20H147V21H146V20Z" fill="#FF2287"/>
<path d="M145 20H146V21H145V20Z" fill="#FF2287"/>
<path d="M144 20H145V21H144V20Z" fill="#FF2287"/>
<path d="M143 20H144V21H143V20Z" fill="#FF2287"/>
<path d="M142 20H143V21H142V20Z" fill="#FF2287"/>
<path d="M141 20H142V21H141V20Z" fill="#FF2287"/>
<path d="M140 20H141V21H140V20Z" fill="#FF2287"/>
<path d="M139 20H140V21H139V20Z" fill="#FF2287"/>
<path d="M138 20H139V21H138V20Z" fill="#FF2287"/>
<path d="M137 20H138V21H137V20Z" fill="#FF2287"/>
<path d="M136 20H137V21H136V20Z" fill="#FF2287"/>
<path d="M135 20H136V21H135V20Z" fill="#FF2287"/>
<path d="M134 20H135V21H134V20Z" fill="#FF2287"/>
<path d="M133 20H134V21H133V20Z" fill="#FF2287"/>
<path d="M132 20H133V21H132V20Z" fill="#FF2287"/>
<path d="M131 20H132V21H131V20Z" fill="#FF2287"/>
<path d="M130 20H131V21H130V20Z" fill="#FF2287"/>
<path d="M129 20H130V21H129V20Z" fill="#FF2287"/>
<path d="M128 20H129V21H128V20Z" fill="#FF2287"/>
<path d="M127 20H128V21H127V20Z" fill="#FF2287"/>
<path d="M126 20H127V21H126V20Z" fill="#FF2287"/>
<path d="M125 20H126V21H125V20Z" fill="#FF2287"/>
<path d="M124 20H125V21H124V20Z" fill="#FF2287"/>
<path d="M123 20H124V21H123V20Z" fill="#FF2287"/>
<path d="M122 20H123V21H122V20Z" fill="#FF2287"/>
<path d="M121 20H122V21H121V20Z" fill="#FF2287"/>
<path d="M120 20H121V21H120V20Z" fill="#FF2287"/>
<path d="M119 20H120V21H119V20Z" fill="#FF2287"/>
<path d="M118 20H119V21H118V20Z" fill="#FF2287"/>
<path d="M117 20H118V21H117V20Z" fill="#FF2287"/>
<path d="M116 20H117V21H116V20Z" fill="#FF2287"/>
<path d="M115 20H116V21H115V20Z" fill="#FF2287"/>
<path d="M114 20H115V21H114V20Z" fill="#FF2287"/>
<path d="M113 20H114V21H113V20Z" fill="#FF2287"/>
<path d="M112 20H113V21H112V20Z" fill="#FF2287"/>
<path d="M111 20H112V21H111V20Z" fill="#FF2287"/>
<path d="M110 20H111V21H110V20Z" fill="#FF2287"/>
<path d="M109 20H110V21H109V20Z" fill="#FF2287"/>
<path d="M108 20H109V21H108V20Z" fill="#FF2287"/>
<path d="M107 20H108V21H107V20Z" fill="#FF2287"/>
<path d="M106 20H107V21H106V20Z" fill="#FF2287"/>
<path d="M105 20H106V21H105V20Z" fill="#FF2287"/>
<path d="M104 20H105V21H104V20Z" fill="#FF2287"/>
<path d="M103 20H104V21H103V20Z" fill="#FF2287"/>
<path d="M102 20H103V21H102V20Z" fill="#FF2287"/>
<path d="M101 20H102V21H101V20Z" fill="#FF2287"/>
<path d="M100 20H101V21H100V20Z" fill="#FF2287"/>
<path d="M99 20H100V21H99V20Z" fill="#FF2287"/>
<path d="M98 20H99V21H98V20Z" fill="#FF2287"/>
<path d="M97 20H98V21H97V20Z" fill="#FF2287"/>
<path d="M96 20H97V21H96V20Z" fill="#FF2287"/>
<path d="M95 20H96V21H95V20Z" fill="#FF2287"/>
<path d="M94 20H95V21H94V20Z" fill="#FF2287"/>
<path d="M93 20H94V21H93V20Z" fill="#FF2287"/>
<path d="M92 20H93V21H92V20Z" fill="#FF2287"/>
<path d="M91 20H92V21H91V20Z" fill="#FF2287"/>
<path d="M90 20H91V21H90V20Z" fill="#FF2287"/>
<path d="M89 20H90V21H89V20Z" fill="#FF2287"/>
<path d="M88 20H89V21H88V20Z" fill="#FF2287"/>
<path d="M87 20H88V21H87V20Z" fill="#FF2287"/>
<path d="M86 20H87V21H86V20Z" fill="#FF2287"/>
<path d="M85 20H86V21H85V20Z" fill="#FF2287"/>
<path d="M84 20H85V21H84V20Z" fill="#FF2287"/>
<path d="M83 20H84V21H83V20Z" fill="#FF2287"/>
<path d="M82 20H83V21H82V20Z" fill="#FF2287"/>
<path d="M81 20H82V21H81V20Z" fill="#FF2287"/>
<path d="M80 20H81V21H80V20Z" fill="#FF2287"/>
<path d="M79 20H80V21H79V20Z" fill="#FF2287"/>
<path d="M78 20H79V21H78V20Z" fill="#FF2287"/>
<path d="M77 20H78V21H77V20Z" fill="#FF2287"/>
<path d="M76 20H77V21H76V20Z" fill="#FF2287"/>
<path d="M75 20H76V21H75V20Z" fill="#FF2287"/>
<path d="M74 20H75V21H74V20Z" fill="#FF2287"/>
<path d="M73 20H74V21H73V20Z" fill="#FF2287"/>
<path d="M72 20H73V21H72V20Z" fill="#FF2287"/>
<path d="M71 20H72V21H71V20Z" fill="#FF2287"/>
<path d="M70 20H71V21H70V20Z" fill="#FF2287"/>
<path d="M69 20H70V21H69V20Z" fill="#FF2287"/>
<path d="M68 20H69V21H68V20Z" fill="#FF2287"/>
<path d="M67 20H68V21H67V20Z" fill="#FF2287"/>
<path d="M66 20H67V21H66V20Z" fill="#FF2287"/>
<path d="M65 20H66V21H65V20Z" fill="#FF2287"/>
<path d="M64 20H65V21H64V20Z" fill="#FF2287"/>
<path d="M63 20H64V21H63V20Z" fill="#FF2287"/>
<path d="M62 20H63V21H62V20Z" fill="#FF2287"/>
<path d="M61 20H62V21H61V20Z" fill="#FF2287"/>
<path d="M60 20H61V21H60V20Z" fill="#FF2287"/>
<path d="M59 20H60V21H59V20Z" fill="#FF2287"/>
<path d="M58 20H59V21H58V20Z" fill="#FF2287"/>
<path d="M57 20H58V21H57V20Z" fill="#FF2287"/>
<path d="M56 20H57V21H56V20Z" fill="#FF2287"/>
<path d="M55 20H56V21H55V20Z" fill="#FF2287"/>
<path d="M54 20H55V21H54V20Z" fill="#FF2287"/>
<path d="M53 20H54V21H53V20Z" fill="#FF2287"/>
<path d="M52 20H53V21H52V20Z" fill="#FF2287"/>
<path d="M51 20H52V21H51V20Z" fill="#FF2287"/>
<path d="M50 20H51V21H50V20Z" fill="#FF2287"/>
<path d="M49 20H50V21H49V20Z" fill="#FF2287"/>
<path d="M48 20H49V21H48V20Z" fill="#FF2287"/>
<path d="M47 20H48V21H47V20Z" fill="#FF2287"/>
<path d="M46 20H47V21H46V20Z" fill="#FF2287"/>
<path d="M45 20H46V21H45V20Z" fill="#FF2287"/>
<path d="M44 20H45V21H44V20Z" fill="#FF2287"/>
<path d="M43 20H44V21H43V20Z" fill="#FF2287"/>
<path d="M42 20H43V21H42V20Z" fill="#FF2287"/>
<path d="M41 20H42V21H41V20Z" fill="#FF2287"/>
<path d="M40 20H41V21H40V20Z" fill="#FF2287"/>
<path d="M39 20H40V21H39V20Z" fill="#FF2287"/>
<path d="M38 20H39V21H38V20Z" fill="#FF2287"/>
<path d="M37 20H38V21H37V20Z" fill="#FF2287"/>
<path d="M36 20H37V21H36V20Z" fill="#FF2287"/>
<path d="M35 20H36V21H35V20Z" fill="#FF2287"/>
<path d="M34 20H35V21H34V20Z" fill="#FF2287"/>
<path d="M33 20H34V21H33V20Z" fill="#FF2287"/>
<path d="M32 20H33V21H32V20Z" fill="#FF2287"/>
<path d="M31 20H32V21H31V20Z" fill="#FF2287"/>
<path d="M30 20H31V21H30V20Z" fill="#FF2287"/>
<path d="M29 20H30V21H29V20Z" fill="#FF2287"/>
<path d="M28 20H29V21H28V20Z" fill="#FF2287"/>
<path d="M27 20H28V21H27V20Z" fill="#FF2287"/>
<path d="M26 20H27V21H26V20Z" fill="#FF2287"/>
<path d="M25 20H26V21H25V20Z" fill="#FF2287"/>
<path d="M24 20H25V21H24V20Z" fill="#FF2287"/>
<path d="M23 20H24V21H23V20Z" fill="#FF2287"/>
<path d="M22 20H23V21H22V20Z" fill="#FF2287"/>
<path d="M21 20H22V21H21V20Z" fill="#FF2287"/>
<path d="M20 20H21V21H20V20Z" fill="#FF2287"/>
<path d="M19 20H20V21H19V20Z" fill="#FF2287"/>
<path d="M18 20H19V21H18V20Z" fill="#FF2287"/>
<path d="M17 20H18V21H17V20Z" fill="#FF2287"/>
<path d="M16 20H17V21H16V20Z" fill="#FF2287"/>
<path d="M223 21H224V22H223V21Z" fill="#FF2287"/>
<path d="M222 21H223V22H222V21Z" fill="#FF2287"/>
<path d="M215 21H222V22H215V21Z" fill="#FF2287"/>
<path d="M214 21H215V22H214V21Z" fill="#FF2287"/>
<path d="M213 21H214V22H213V21Z" fill="#FF2287"/>
<path d="M212 21H213V22H212V21Z" fill="#FF2287"/>
<path d="M211 21H212V22H211V21Z" fill="#FF2287"/>
<path d="M210 21H211V22H210V21Z" fill="#FF2287"/>
<path d="M209 21H210V22H209V21Z" fill="#FF2287"/>
<path d="M208 21H209V22H208V21Z" fill="#FF2287"/>
<path d="M207 21H208V22H207V21Z" fill="#FF2287"/>
<path d="M206 21H207V22H206V21Z" fill="#FF2287"/>
<path d="M205 21H206V22H205V21Z" fill="#FF2287"/>
<path d="M204 21H205V22H204V21Z" fill="#FF2287"/>
<path d="M203 21H204V22H203V21Z" fill="#FF2287"/>
<path d="M202 21H203V22H202V21Z" fill="#FF2287"/>
<path d="M201 21H202V22H201V21Z" fill="#FF2287"/>
<path d="M200 21H201V22H200V21Z" fill="#FF2287"/>
<path d="M199 21H200V22H199V21Z" fill="#FF2287"/>
<path d="M198 21H199V22H198V21Z" fill="#FF2287"/>
<path d="M197 21H198V22H197V21Z" fill="#FF2287"/>
<path d="M196 21H197V22H196V21Z" fill="#FF2287"/>
<path d="M195 21H196V22H195V21Z" fill="#FF2287"/>
<path d="M194 21H195V22H194V21Z" fill="#FF2287"/>
<path d="M193 21H194V22H193V21Z" fill="#FF2287"/>
<path d="M192 21H193V22H192V21Z" fill="#FF2287"/>
<path d="M191 21H192V22H191V21Z" fill="#FF2287"/>
<path d="M190 21H191V22H190V21Z" fill="#FF2287"/>
<path d="M189 21H190V22H189V21Z" fill="#FF2287"/>
<path d="M188 21H189V22H188V21Z" fill="#FF2287"/>
<path d="M187 21H188V22H187V21Z" fill="#FF2287"/>
<path d="M186 21H187V22H186V21Z" fill="#FF2287"/>
<path d="M185 21H186V22H185V21Z" fill="#FF2287"/>
<path d="M184 21H185V22H184V21Z" fill="#FF2287"/>
<path d="M183 21H184V22H183V21Z" fill="#FF2287"/>
<path d="M182 21H183V22H182V21Z" fill="#FF2287"/>
<path d="M181 21H182V22H181V21Z" fill="#FF2287"/>
<path d="M180 21H181V22H180V21Z" fill="#FF2287"/>
<path d="M179 21H180V22H179V21Z" fill="#FF2287"/>
<path d="M178 21H179V22H178V21Z" fill="#FF2287"/>
<path d="M177 21H178V22H177V21Z" fill="#FF2287"/>
<path d="M176 21H177V22H176V21Z" fill="#FF2287"/>
<path d="M175 21H176V22H175V21Z" fill="#FF2287"/>
<path d="M174 21H175V22H174V21Z" fill="#FF2287"/>
<path d="M173 21H174V22H173V21Z" fill="#FF2287"/>
<path d="M172 21H173V22H172V21Z" fill="#FF2287"/>
<path d="M171 21H172V22H171V21Z" fill="#FF2287"/>
<path d="M170 21H171V22H170V21Z" fill="#FF2287"/>
<path d="M169 21H170V22H169V21Z" fill="#FF2287"/>
<path d="M168 21H169V22H168V21Z" fill="#FF2287"/>
<path d="M167 21H168V22H167V21Z" fill="#FF2287"/>
<path d="M166 21H167V22H166V21Z" fill="#FF2287"/>
<path d="M165 21H166V22H165V21Z" fill="#FF2287"/>
<path d="M164 21H165V22H164V21Z" fill="#FF2287"/>
<path d="M163 21H164V22H163V21Z" fill="#FF2287"/>
<path d="M162 21H163V22H162V21Z" fill="#FF2287"/>
<path d="M161 21H162V22H161V21Z" fill="#FF2287"/>
<path d="M160 21H161V22H160V21Z" fill="#FF2287"/>
<path d="M159 21H160V22H159V21Z" fill="#FF2287"/>
<path d="M158 21H159V22H158V21Z" fill="#FF2287"/>
<path d="M157 21H158V22H157V21Z" fill="#FF2287"/>
<path d="M156 21H157V22H156V21Z" fill="#FF2287"/>
<path d="M155 21H156V22H155V21Z" fill="#FF2287"/>
<path d="M154 21H155V22H154V21Z" fill="#FF2287"/>
<path d="M153 21H154V22H153V21Z" fill="#FF2287"/>
<path d="M152 21H153V22H152V21Z" fill="#FF2287"/>
<path d="M151 21H152V22H151V21Z" fill="#FF2287"/>
<path d="M150 21H151V22H150V21Z" fill="#FF2287"/>
<path d="M149 21H150V22H149V21Z" fill="#FF2287"/>
<path d="M148 21H149V22H148V21Z" fill="#FF2287"/>
<path d="M147 21H148V22H147V21Z" fill="#FF2287"/>
<path d="M146 21H147V22H146V21Z" fill="#FF2287"/>
<path d="M145 21H146V22H145V21Z" fill="#FF2287"/>
<path d="M144 21H145V22H144V21Z" fill="#FF2287"/>
<path d="M143 21H144V22H143V21Z" fill="#FF2287"/>
<path d="M142 21H143V22H142V21Z" fill="#FF2287"/>
<path d="M141 21H142V22H141V21Z" fill="#FF2287"/>
<path d="M140 21H141V22H140V21Z" fill="#FF2287"/>
<path d="M139 21H140V22H139V21Z" fill="#FF2287"/>
<path d="M138 21H139V22H138V21Z" fill="#FF2287"/>
<path d="M137 21H138V22H137V21Z" fill="#FF2287"/>
<path d="M136 21H137V22H136V21Z" fill="#FF2287"/>
<path d="M135 21H136V22H135V21Z" fill="#FF2287"/>
<path d="M134 21H135V22H134V21Z" fill="#FF2287"/>
<path d="M133 21H134V22H133V21Z" fill="#FF2287"/>
<path d="M132 21H133V22H132V21Z" fill="#FF2287"/>
<path d="M131 21H132V22H131V21Z" fill="#FF2287"/>
<path d="M130 21H131V22H130V21Z" fill="#FF2287"/>
<path d="M129 21H130V22H129V21Z" fill="#FF2287"/>
<path d="M128 21H129V22H128V21Z" fill="#FF2287"/>
<path d="M127 21H128V22H127V21Z" fill="#FF2287"/>
<path d="M126 21H127V22H126V21Z" fill="#FF2287"/>
<path d="M125 21H126V22H125V21Z" fill="#FF2287"/>
<path d="M124 21H125V22H124V21Z" fill="#FF2287"/>
<path d="M123 21H124V22H123V21Z" fill="#FF2287"/>
<path d="M122 21H123V22H122V21Z" fill="#FF2287"/>
<path d="M121 21H122V22H121V21Z" fill="#FF2287"/>
<path d="M120 21H121V22H120V21Z" fill="#FF2287"/>
<path d="M119 21H120V22H119V21Z" fill="#FF2287"/>
<path d="M118 21H119V22H118V21Z" fill="#FF2287"/>
<path d="M117 21H118V22H117V21Z" fill="#FF2287"/>
<path d="M116 21H117V22H116V21Z" fill="#FF2287"/>
<path d="M115 21H116V22H115V21Z" fill="#FF2287"/>
<path d="M114 21H115V22H114V21Z" fill="#FF2287"/>
<path d="M113 21H114V22H113V21Z" fill="#FF2287"/>
<path d="M112 21H113V22H112V21Z" fill="#FF2287"/>
<path d="M111 21H112V22H111V21Z" fill="#FF2287"/>
<path d="M110 21H111V22H110V21Z" fill="#FF2287"/>
<path d="M109 21H110V22H109V21Z" fill="#FF2287"/>
<path d="M108 21H109V22H108V21Z" fill="#FF2287"/>
<path d="M107 21H108V22H107V21Z" fill="#FF2287"/>
<path d="M106 21H107V22H106V21Z" fill="#FF2287"/>
<path d="M105 21H106V22H105V21Z" fill="#FF2287"/>
<path d="M104 21H105V22H104V21Z" fill="#FF2287"/>
<path d="M103 21H104V22H103V21Z" fill="#FF2287"/>
<path d="M102 21H103V22H102V21Z" fill="#FF2287"/>
<path d="M101 21H102V22H101V21Z" fill="#FF2287"/>
<path d="M100 21H101V22H100V21Z" fill="#FF2287"/>
<path d="M99 21H100V22H99V21Z" fill="#FF2287"/>
<path d="M98 21H99V22H98V21Z" fill="#FF2287"/>
<path d="M97 21H98V22H97V21Z" fill="#FF2287"/>
<path d="M96 21H97V22H96V21Z" fill="#FF2287"/>
<path d="M95 21H96V22H95V21Z" fill="#FF2287"/>
<path d="M94 21H95V22H94V21Z" fill="#FF2287"/>
<path d="M93 21H94V22H93V21Z" fill="#FF2287"/>
<path d="M92 21H93V22H92V21Z" fill="#FF2287"/>
<path d="M91 21H92V22H91V21Z" fill="#FF2287"/>
<path d="M90 21H91V22H90V21Z" fill="#FF2287"/>
<path d="M89 21H90V22H89V21Z" fill="#FF2287"/>
<path d="M88 21H89V22H88V21Z" fill="#FF2287"/>
<path d="M87 21H88V22H87V21Z" fill="#FF2287"/>
<path d="M86 21H87V22H86V21Z" fill="#FF2287"/>
<path d="M85 21H86V22H85V21Z" fill="#FF2287"/>
<path d="M84 21H85V22H84V21Z" fill="#FF2287"/>
<path d="M83 21H84V22H83V21Z" fill="#FF2287"/>
<path d="M82 21H83V22H82V21Z" fill="#FF2287"/>
<path d="M81 21H82V22H81V21Z" fill="#FF2287"/>
<path d="M80 21H81V22H80V21Z" fill="#FF2287"/>
<path d="M79 21H80V22H79V21Z" fill="#FF2287"/>
<path d="M78 21H79V22H78V21Z" fill="#FF2287"/>
<path d="M77 21H78V22H77V21Z" fill="#FF2287"/>
<path d="M76 21H77V22H76V21Z" fill="#FF2287"/>
<path d="M75 21H76V22H75V21Z" fill="#FF2287"/>
<path d="M74 21H75V22H74V21Z" fill="#FF2287"/>
<path d="M73 21H74V22H73V21Z" fill="#FF2287"/>
<path d="M72 21H73V22H72V21Z" fill="#FF2287"/>
<path d="M71 21H72V22H71V21Z" fill="#FF2287"/>
<path d="M70 21H71V22H70V21Z" fill="#FF2287"/>
<path d="M69 21H70V22H69V21Z" fill="#FF2287"/>
<path d="M68 21H69V22H68V21Z" fill="#FF2287"/>
<path d="M67 21H68V22H67V21Z" fill="#FF2287"/>
<path d="M66 21H67V22H66V21Z" fill="#FF2287"/>
<path d="M65 21H66V22H65V21Z" fill="#FF2287"/>
<path d="M64 21H65V22H64V21Z" fill="#FF2287"/>
<path d="M63 21H64V22H63V21Z" fill="#FF2287"/>
<path d="M62 21H63V22H62V21Z" fill="#FF2287"/>
<path d="M61 21H62V22H61V21Z" fill="#FF2287"/>
<path d="M60 21H61V22H60V21Z" fill="#FF2287"/>
<path d="M59 21H60V22H59V21Z" fill="#FF2287"/>
<path d="M58 21H59V22H58V21Z" fill="#FF2287"/>
<path d="M57 21H58V22H57V21Z" fill="#FF2287"/>
<path d="M56 21H57V22H56V21Z" fill="#FF2287"/>
<path d="M55 21H56V22H55V21Z" fill="#FF2287"/>
<path d="M54 21H55V22H54V21Z" fill="#FF2287"/>
<path d="M53 21H54V22H53V21Z" fill="#FF2287"/>
<path d="M52 21H53V22H52V21Z" fill="#FF2287"/>
<path d="M51 21H52V22H51V21Z" fill="#FF2287"/>
<path d="M50 21H51V22H50V21Z" fill="#FF2287"/>
<path d="M49 21H50V22H49V21Z" fill="#FF2287"/>
<path d="M48 21H49V22H48V21Z" fill="#FF2287"/>
<path d="M47 21H48V22H47V21Z" fill="#FF2287"/>
<path d="M46 21H47V22H46V21Z" fill="#FF2287"/>
<path d="M45 21H46V22H45V21Z" fill="#FF2287"/>
<path d="M44 21H45V22H44V21Z" fill="#FF2287"/>
<path d="M43 21H44V22H43V21Z" fill="#FF2287"/>
<path d="M42 21H43V22H42V21Z" fill="#FF2287"/>
<path d="M41 21H42V22H41V21Z" fill="#FF2287"/>
<path d="M40 21H41V22H40V21Z" fill="#FF2287"/>
<path d="M39 21H40V22H39V21Z" fill="#FF2287"/>
<path d="M38 21H39V22H38V21Z" fill="#FF2287"/>
<path d="M37 21H38V22H37V21Z" fill="#FF2287"/>
<path d="M36 21H37V22H36V21Z" fill="#FF2287"/>
<path d="M35 21H36V22H35V21Z" fill="#FF2287"/>
<path d="M34 21H35V22H34V21Z" fill="#FF2287"/>
<path d="M33 21H34V22H33V21Z" fill="#FF2287"/>
<path d="M32 21H33V22H32V21Z" fill="#FF2287"/>
<path d="M31 21H32V22H31V21Z" fill="#FF2287"/>
<path d="M30 21H31V22H30V21Z" fill="#FF2287"/>
<path d="M29 21H30V22H29V21Z" fill="#FF2287"/>
<path d="M28 21H29V22H28V21Z" fill="#FF2287"/>
<path d="M27 21H28V22H27V21Z" fill="#FF2287"/>
<path d="M26 21H27V22H26V21Z" fill="#FF2287"/>
<path d="M25 21H26V22H25V21Z" fill="#FF2287"/>
<path d="M24 21H25V22H24V21Z" fill="#FF2287"/>
<path d="M23 21H24V22H23V21Z" fill="#FF2287"/>
<path d="M22 21H23V22H22V21Z" fill="#FF2287"/>
<path d="M21 21H22V22H21V21Z" fill="#FF2287"/>
<path d="M20 21H21V22H20V21Z" fill="#FF2287"/>
<path d="M19 21H20V22H19V21Z" fill="#FF2287"/>
<path d="M18 21H19V22H18V21Z" fill="#FF2287"/>
<path d="M17 21H18V22H17V21Z" fill="#FF2287"/>
</svg>
