<svg width="224" height="22" viewBox="0 0 224 22" fill="none" xmlns="http://www.w3.org/2000/svg">
<path d="M1 0H0V1H1V0Z" fill="#FF2287"/>
<path d="M2 0H1V1H2V0Z" fill="#FF2287"/>
<path d="M1 1H0V2H1V1Z" fill="#FF2287"/>
<path d="M2 1H1V2H2V1Z" fill="#FF2287"/>
<path d="M3 1H2V2H3V1Z" fill="#FF2287"/>
<path d="M1 2H0V3H1V2Z" fill="#FF2287"/>
<path d="M2 2H1V3H2V2Z" fill="#FF2287"/>
<path d="M3 2H2V3H3V2Z" fill="#FF2287"/>
<path d="M4 2H3V3H4V2Z" fill="#FF2287"/>
<path d="M1 3H0V4H1V3Z" fill="#FF2287"/>
<path d="M2 3H1V4H2V3Z" fill="#FF2287"/>
<path d="M3 3H2V4H3V3Z" fill="#FF2287"/>
<path d="M4 3H3V4H4V3Z" fill="#FF2287"/>
<path d="M5 3H4V4H5V3Z" fill="#FF2287"/>
<path d="M6 3H5V4H6V3Z" fill="#FF2287"/>
<path d="M7 3H6V4H7V3Z" fill="#FF2287"/>
<path d="M8 3H7V4H8V3Z" fill="#FF2287"/>
<path d="M9 3H8V4H9V3Z" fill="#FF2287"/>
<path d="M10 3H9V4H10V3Z" fill="#FF2287"/>
<path d="M11 3H10V4H11V3Z" fill="#FF2287"/>
<path d="M12 3H11V4H12V3Z" fill="#FF2287"/>
<path d="M13 3H12V4H13V3Z" fill="#FF2287"/>
<path d="M14 3H13V4H14V3Z" fill="#FF2287"/>
<path d="M15 3H14V4H15V3Z" fill="#FF2287"/>
<path d="M16 3H15V4H16V3Z" fill="#FF2287"/>
<path d="M17 3H16V4H17V3Z" fill="#FF2287"/>
<path d="M18 3H17V4H18V3Z" fill="#FF2287"/>
<path d="M19 3H18V4H19V3Z" fill="#FF2287"/>
<path d="M20 3H19V4H20V3Z" fill="#FF2287"/>
<path d="M21 3H20V4H21V3Z" fill="#FF2287"/>
<path d="M22 3H21V4H22V3Z" fill="#FF2287"/>
<path d="M23 3H22V4H23V3Z" fill="#FF2287"/>
<path d="M24 3H23V4H24V3Z" fill="#FF2287"/>
<path d="M25 3H24V4H25V3Z" fill="#FF2287"/>
<path d="M26 3H25V4H26V3Z" fill="#FF2287"/>
<path d="M27 3H26V4H27V3Z" fill="#FF2287"/>
<path d="M28 3H27V4H28V3Z" fill="#FF2287"/>
<path d="M29 3H28V4H29V3Z" fill="#FF2287"/>
<path d="M30 3H29V4H30V3Z" fill="#FF2287"/>
<path d="M31 3H30V4H31V3Z" fill="#FF2287"/>
<path d="M32 3H31V4H32V3Z" fill="#FF2287"/>
<path d="M33 3H32V4H33V3Z" fill="#FF2287"/>
<path d="M34 3H33V4H34V3Z" fill="#FF2287"/>
<path d="M35 3H34V4H35V3Z" fill="#FF2287"/>
<path d="M36 3H35V4H36V3Z" fill="#FF2287"/>
<path d="M37 3H36V4H37V3Z" fill="#FF2287"/>
<path d="M38 3H37V4H38V3Z" fill="#FF2287"/>
<path d="M39 3H38V4H39V3Z" fill="#FF2287"/>
<path d="M40 3H39V4H40V3Z" fill="#FF2287"/>
<path d="M41 3H40V4H41V3Z" fill="#FF2287"/>
<path d="M42 3H41V4H42V3Z" fill="#FF2287"/>
<path d="M43 3H42V4H43V3Z" fill="#FF2287"/>
<path d="M44 3H43V4H44V3Z" fill="#FF2287"/>
<path d="M45 3H44V4H45V3Z" fill="#FF2287"/>
<path d="M46 3H45V4H46V3Z" fill="#FF2287"/>
<path d="M47 3H46V4H47V3Z" fill="#FF2287"/>
<path d="M48 3H47V4H48V3Z" fill="#FF2287"/>
<path d="M49 3H48V4H49V3Z" fill="#FF2287"/>
<path d="M50 3H49V4H50V3Z" fill="#FF2287"/>
<path d="M51 3H50V4H51V3Z" fill="#FF2287"/>
<path d="M52 3H51V4H52V3Z" fill="#FF2287"/>
<path d="M53 3H52V4H53V3Z" fill="#FF2287"/>
<path d="M54 3H53V4H54V3Z" fill="#FF2287"/>
<path d="M55 3H54V4H55V3Z" fill="#FF2287"/>
<path d="M56 3H55V4H56V3Z" fill="#FF2287"/>
<path d="M57 3H56V4H57V3Z" fill="#FF2287"/>
<path d="M58 3H57V4H58V3Z" fill="#FF2287"/>
<path d="M59 3H58V4H59V3Z" fill="#FF2287"/>
<path d="M60 3H59V4H60V3Z" fill="#FF2287"/>
<path d="M61 3H60V4H61V3Z" fill="#FF2287"/>
<path d="M62 3H61V4H62V3Z" fill="#FF2287"/>
<path d="M63 3H62V4H63V3Z" fill="#FF2287"/>
<path d="M64 3H63V4H64V3Z" fill="#FF2287"/>
<path d="M65 3H64V4H65V3Z" fill="#FF2287"/>
<path d="M66 3H65V4H66V3Z" fill="#FF2287"/>
<path d="M67 3H66V4H67V3Z" fill="#FF2287"/>
<path d="M68 3H67V4H68V3Z" fill="#FF2287"/>
<path d="M69 3H68V4H69V3Z" fill="#FF2287"/>
<path d="M70 3H69V4H70V3Z" fill="#FF2287"/>
<path d="M71 3H70V4H71V3Z" fill="#FF2287"/>
<path d="M72 3H71V4H72V3Z" fill="#FF2287"/>
<path d="M73 3H72V4H73V3Z" fill="#FF2287"/>
<path d="M74 3H73V4H74V3Z" fill="#FF2287"/>
<path d="M75 3H74V4H75V3Z" fill="#FF2287"/>
<path d="M76 3H75V4H76V3Z" fill="#FF2287"/>
<path d="M77 3H76V4H77V3Z" fill="#FF2287"/>
<path d="M78 3H77V4H78V3Z" fill="#FF2287"/>
<path d="M79 3H78V4H79V3Z" fill="#FF2287"/>
<path d="M80 3H79V4H80V3Z" fill="#FF2287"/>
<path d="M81 3H80V4H81V3Z" fill="#FF2287"/>
<path d="M82 3H81V4H82V3Z" fill="#FF2287"/>
<path d="M83 3H82V4H83V3Z" fill="#FF2287"/>
<path d="M84 3H83V4H84V3Z" fill="#FF2287"/>
<path d="M85 3H84V4H85V3Z" fill="#FF2287"/>
<path d="M86 3H85V4H86V3Z" fill="#FF2287"/>
<path d="M87 3H86V4H87V3Z" fill="#FF2287"/>
<path d="M88 3H87V4H88V3Z" fill="#FF2287"/>
<path d="M89 3H88V4H89V3Z" fill="#FF2287"/>
<path d="M90 3H89V4H90V3Z" fill="#FF2287"/>
<path d="M91 3H90V4H91V3Z" fill="#FF2287"/>
<path d="M92 3H91V4H92V3Z" fill="#FF2287"/>
<path d="M93 3H92V4H93V3Z" fill="#FF2287"/>
<path d="M94 3H93V4H94V3Z" fill="#FF2287"/>
<path d="M95 3H94V4H95V3Z" fill="#FF2287"/>
<path d="M96 3H95V4H96V3Z" fill="#FF2287"/>
<path d="M97 3H96V4H97V3Z" fill="#FF2287"/>
<path d="M98 3H97V4H98V3Z" fill="#FF2287"/>
<path d="M99 3H98V4H99V3Z" fill="#FF2287"/>
<path d="M100 3H99V4H100V3Z" fill="#FF2287"/>
<path d="M101 3H100V4H101V3Z" fill="#FF2287"/>
<path d="M102 3H101V4H102V3Z" fill="#FF2287"/>
<path d="M103 3H102V4H103V3Z" fill="#FF2287"/>
<path d="M104 3H103V4H104V3Z" fill="#FF2287"/>
<path d="M105 3H104V4H105V3Z" fill="#FF2287"/>
<path d="M106 3H105V4H106V3Z" fill="#FF2287"/>
<path d="M107 3H106V4H107V3Z" fill="#FF2287"/>
<path d="M108 3H107V4H108V3Z" fill="#FF2287"/>
<path d="M109 3H108V4H109V3Z" fill="#FF2287"/>
<path d="M110 3H109V4H110V3Z" fill="#FF2287"/>
<path d="M111 3H110V4H111V3Z" fill="#FF2287"/>
<path d="M112 3H111V4H112V3Z" fill="#FF2287"/>
<path d="M113 3H112V4H113V3Z" fill="#FF2287"/>
<path d="M114 3H113V4H114V3Z" fill="#FF2287"/>
<path d="M115 3H114V4H115V3Z" fill="#FF2287"/>
<path d="M116 3H115V4H116V3Z" fill="#FF2287"/>
<path d="M117 3H116V4H117V3Z" fill="#FF2287"/>
<path d="M118 3H117V4H118V3Z" fill="#FF2287"/>
<path d="M119 3H118V4H119V3Z" fill="#FF2287"/>
<path d="M120 3H119V4H120V3Z" fill="#FF2287"/>
<path d="M121 3H120V4H121V3Z" fill="#FF2287"/>
<path d="M122 3H121V4H122V3Z" fill="#FF2287"/>
<path d="M123 3H122V4H123V3Z" fill="#FF2287"/>
<path d="M124 3H123V4H124V3Z" fill="#FF2287"/>
<path d="M125 3H124V4H125V3Z" fill="#FF2287"/>
<path d="M126 3H125V4H126V3Z" fill="#FF2287"/>
<path d="M127 3H126V4H127V3Z" fill="#FF2287"/>
<path d="M128 3H127V4H128V3Z" fill="#FF2287"/>
<path d="M129 3H128V4H129V3Z" fill="#FF2287"/>
<path d="M130 3H129V4H130V3Z" fill="#FF2287"/>
<path d="M131 3H130V4H131V3Z" fill="#FF2287"/>
<path d="M132 3H131V4H132V3Z" fill="#FF2287"/>
<path d="M133 3H132V4H133V3Z" fill="#FF2287"/>
<path d="M134 3H133V4H134V3Z" fill="#FF2287"/>
<path d="M135 3H134V4H135V3Z" fill="#FF2287"/>
<path d="M136 3H135V4H136V3Z" fill="#FF2287"/>
<path d="M137 3H136V4H137V3Z" fill="#FF2287"/>
<path d="M138 3H137V4H138V3Z" fill="#FF2287"/>
<path d="M139 3H138V4H139V3Z" fill="#FF2287"/>
<path d="M140 3H139V4H140V3Z" fill="#FF2287"/>
<path d="M141 3H140V4H141V3Z" fill="#FF2287"/>
<path d="M142 3H141V4H142V3Z" fill="#FF2287"/>
<path d="M143 3H142V4H143V3Z" fill="#FF2287"/>
<path d="M144 3H143V4H144V3Z" fill="#FF2287"/>
<path d="M145 3H144V4H145V3Z" fill="#FF2287"/>
<path d="M146 3H145V4H146V3Z" fill="#FF2287"/>
<path d="M147 3H146V4H147V3Z" fill="#FF2287"/>
<path d="M148 3H147V4H148V3Z" fill="#FF2287"/>
<path d="M149 3H148V4H149V3Z" fill="#FF2287"/>
<path d="M150 3H149V4H150V3Z" fill="#FF2287"/>
<path d="M151 3H150V4H151V3Z" fill="#FF2287"/>
<path d="M152 3H151V4H152V3Z" fill="#FF2287"/>
<path d="M153 3H152V4H153V3Z" fill="#FF2287"/>
<path d="M154 3H153V4H154V3Z" fill="#FF2287"/>
<path d="M155 3H154V4H155V3Z" fill="#FF2287"/>
<path d="M156 3H155V4H156V3Z" fill="#FF2287"/>
<path d="M157 3H156V4H157V3Z" fill="#FF2287"/>
<path d="M158 3H157V4H158V3Z" fill="#FF2287"/>
<path d="M159 3H158V4H159V3Z" fill="#FF2287"/>
<path d="M160 3H159V4H160V3Z" fill="#FF2287"/>
<path d="M161 3H160V4H161V3Z" fill="#FF2287"/>
<path d="M162 3H161V4H162V3Z" fill="#FF2287"/>
<path d="M163 3H162V4H163V3Z" fill="#FF2287"/>
<path d="M164 3H163V4H164V3Z" fill="#FF2287"/>
<path d="M165 3H164V4H165V3Z" fill="#FF2287"/>
<path d="M166 3H165V4H166V3Z" fill="#FF2287"/>
<path d="M167 3H166V4H167V3Z" fill="#FF2287"/>
<path d="M168 3H167V4H168V3Z" fill="#FF2287"/>
<path d="M169 3H168V4H169V3Z" fill="#FF2287"/>
<path d="M170 3H169V4H170V3Z" fill="#FF2287"/>
<path d="M171 3H170V4H171V3Z" fill="#FF2287"/>
<path d="M172 3H171V4H172V3Z" fill="#FF2287"/>
<path d="M173 3H172V4H173V3Z" fill="#FF2287"/>
<path d="M174 3H173V4H174V3Z" fill="#FF2287"/>
<path d="M175 3H174V4H175V3Z" fill="#FF2287"/>
<path d="M176 3H175V4H176V3Z" fill="#FF2287"/>
<path d="M177 3H176V4H177V3Z" fill="#FF2287"/>
<path d="M178 3H177V4H178V3Z" fill="#FF2287"/>
<path d="M179 3H178V4H179V3Z" fill="#FF2287"/>
<path d="M180 3H179V4H180V3Z" fill="#FF2287"/>
<path d="M181 3H180V4H181V3Z" fill="#FF2287"/>
<path d="M182 3H181V4H182V3Z" fill="#FF2287"/>
<path d="M183 3H182V4H183V3Z" fill="#FF2287"/>
<path d="M184 3H183V4H184V3Z" fill="#FF2287"/>
<path d="M185 3H184V4H185V3Z" fill="#FF2287"/>
<path d="M186 3H185V4H186V3Z" fill="#FF2287"/>
<path d="M187 3H186V4H187V3Z" fill="#FF2287"/>
<path d="M188 3H187V4H188V3Z" fill="#FF2287"/>
<path d="M189 3H188V4H189V3Z" fill="#FF2287"/>
<path d="M190 3H189V4H190V3Z" fill="#FF2287"/>
<path d="M191 3H190V4H191V3Z" fill="#FF2287"/>
<path d="M192 3H191V4H192V3Z" fill="#FF2287"/>
<path d="M193 3H192V4H193V3Z" fill="#FF2287"/>
<path d="M194 3H193V4H194V3Z" fill="#FF2287"/>
<path d="M195 3H194V4H195V3Z" fill="#FF2287"/>
<path d="M196 3H195V4H196V3Z" fill="#FF2287"/>
<path d="M197 3H196V4H197V3Z" fill="#FF2287"/>
<path d="M198 3H197V4H198V3Z" fill="#FF2287"/>
<path d="M199 3H198V4H199V3Z" fill="#FF2287"/>
<path d="M200 3H199V4H200V3Z" fill="#FF2287"/>
<path d="M201 3H200V4H201V3Z" fill="#FF2287"/>
<path d="M202 3H201V4H202V3Z" fill="#FF2287"/>
<path d="M203 3H202V4H203V3Z" fill="#FF2287"/>
<path d="M204 3H203V4H204V3Z" fill="#FF2287"/>
<path d="M205 3H204V4H205V3Z" fill="#FF2287"/>
<path d="M206 3H205V4H206V3Z" fill="#FF2287"/>
<path d="M207 3H206V4H207V3Z" fill="#FF2287"/>
<path d="M208 3H207V4H208V3Z" fill="#FF2287"/>
<path d="M209 3H208V4H209V3Z" fill="#FF2287"/>
<path d="M210 3H209V4H210V3Z" fill="#FF2287"/>
<path d="M211 3H210V4H211V3Z" fill="#FF2287"/>
<path d="M212 3H211V4H212V3Z" fill="#FF2287"/>
<path d="M213 3H212V4H213V3Z" fill="#FF2287"/>
<path d="M214 3H213V4H214V3Z" fill="#FF2287"/>
<path d="M215 3H214V4H215V3Z" fill="#FF2287"/>
<path d="M216 3H215V4H216V3Z" fill="#FF2287"/>
<path d="M217 3H216V4H217V3Z" fill="#FF2287"/>
<path d="M218 3H217V4H218V3Z" fill="#FF2287"/>
<path d="M219 3H218V4H219V3Z" fill="#FF2287"/>
<path d="M220 3H219V4H220V3Z" fill="#FF2287"/>
<path d="M221 3H220V4H221V3Z" fill="#FF2287"/>
<path d="M222 3H221V4H222V3Z" fill="#FF2287"/>
<path d="M223 3H222V4H223V3Z" fill="#FF2287"/>
<path d="M224 3H223V4H224V3Z" fill="#FF2287"/>
<path d="M1 4H0V5H1V4Z" fill="#FF2287"/>
<path d="M2 4H1V5H2V4Z" fill="#FF2287"/>
<path d="M4 4H3V5H4V4Z" fill="#FF2287"/>
<path d="M5 4H4V5H5V4Z" fill="#FF2287"/>
<path d="M6 4H5V5H6V4Z" fill="#FF2287"/>
<path d="M7 4H6V5H7V4Z" fill="#FF2287"/>
<path d="M8 4H7V5H8V4Z" fill="#FF2287"/>
<path d="M9 4H8V5H9V4Z" fill="#FF2287"/>
<path d="M10 4H9V5H10V4Z" fill="#FF2287"/>
<path d="M11 4H10V5H11V4Z" fill="#FF2287"/>
<path d="M12 4H11V5H12V4Z" fill="#FF2287"/>
<path d="M13 4H12V5H13V4Z" fill="#FF2287"/>
<path d="M14 4H13V5H14V4Z" fill="#FF2287"/>
<path d="M15 4H14V5H15V4Z" fill="#FF2287"/>
<path d="M16 4H15V5H16V4Z" fill="#FF2287"/>
<path d="M17 4H16V5H17V4Z" fill="#FF2287"/>
<path d="M18 4H17V5H18V4Z" fill="#FF2287"/>
<path d="M19 4H18V5H19V4Z" fill="#FF2287"/>
<path d="M20 4H19V5H20V4Z" fill="#FF2287"/>
<path d="M21 4H20V5H21V4Z" fill="#FF2287"/>
<path d="M22 4H21V5H22V4Z" fill="#FF2287"/>
<path d="M23 4H22V5H23V4Z" fill="#FF2287"/>
<path d="M24 4H23V5H24V4Z" fill="#FF2287"/>
<path d="M25 4H24V5H25V4Z" fill="#FF2287"/>
<path d="M26 4H25V5H26V4Z" fill="#FF2287"/>
<path d="M27 4H26V5H27V4Z" fill="#FF2287"/>
<path d="M28 4H27V5H28V4Z" fill="#FF2287"/>
<path d="M29 4H28V5H29V4Z" fill="#FF2287"/>
<path d="M30 4H29V5H30V4Z" fill="#FF2287"/>
<path d="M31 4H30V5H31V4Z" fill="#FF2287"/>
<path d="M32 4H31V5H32V4Z" fill="#FF2287"/>
<path d="M33 4H32V5H33V4Z" fill="#FF2287"/>
<path d="M34 4H33V5H34V4Z" fill="#FF2287"/>
<path d="M35 4H34V5H35V4Z" fill="#FF2287"/>
<path d="M36 4H35V5H36V4Z" fill="#FF2287"/>
<path d="M37 4H36V5H37V4Z" fill="#FF2287"/>
<path d="M38 4H37V5H38V4Z" fill="#FF2287"/>
<path d="M39 4H38V5H39V4Z" fill="#FF2287"/>
<path d="M40 4H39V5H40V4Z" fill="#FF2287"/>
<path d="M41 4H40V5H41V4Z" fill="#FF2287"/>
<path d="M42 4H41V5H42V4Z" fill="#FF2287"/>
<path d="M43 4H42V5H43V4Z" fill="#FF2287"/>
<path d="M44 4H43V5H44V4Z" fill="#FF2287"/>
<path d="M45 4H44V5H45V4Z" fill="#FF2287"/>
<path d="M46 4H45V5H46V4Z" fill="#FF2287"/>
<path d="M47 4H46V5H47V4Z" fill="#FF2287"/>
<path d="M48 4H47V5H48V4Z" fill="#FF2287"/>
<path d="M49 4H48V5H49V4Z" fill="#FF2287"/>
<path d="M50 4H49V5H50V4Z" fill="#FF2287"/>
<path d="M51 4H50V5H51V4Z" fill="#FF2287"/>
<path d="M52 4H51V5H52V4Z" fill="#FF2287"/>
<path d="M53 4H52V5H53V4Z" fill="#FF2287"/>
<path d="M54 4H53V5H54V4Z" fill="#FF2287"/>
<path d="M55 4H54V5H55V4Z" fill="#FF2287"/>
<path d="M56 4H55V5H56V4Z" fill="#FF2287"/>
<path d="M57 4H56V5H57V4Z" fill="#FF2287"/>
<path d="M58 4H57V5H58V4Z" fill="#FF2287"/>
<path d="M59 4H58V5H59V4Z" fill="#FF2287"/>
<path d="M60 4H59V5H60V4Z" fill="#FF2287"/>
<path d="M61 4H60V5H61V4Z" fill="#FF2287"/>
<path d="M62 4H61V5H62V4Z" fill="#FF2287"/>
<path d="M63 4H62V5H63V4Z" fill="#FF2287"/>
<path d="M64 4H63V5H64V4Z" fill="#FF2287"/>
<path d="M65 4H64V5H65V4Z" fill="#FF2287"/>
<path d="M66 4H65V5H66V4Z" fill="#FF2287"/>
<path d="M67 4H66V5H67V4Z" fill="#FF2287"/>
<path d="M68 4H67V5H68V4Z" fill="#FF2287"/>
<path d="M69 4H68V5H69V4Z" fill="#FF2287"/>
<path d="M70 4H69V5H70V4Z" fill="#FF2287"/>
<path d="M71 4H70V5H71V4Z" fill="#FF2287"/>
<path d="M72 4H71V5H72V4Z" fill="#FF2287"/>
<path d="M73 4H72V5H73V4Z" fill="#FF2287"/>
<path d="M74 4H73V5H74V4Z" fill="#FF2287"/>
<path d="M75 4H74V5H75V4Z" fill="#FF2287"/>
<path d="M76 4H75V5H76V4Z" fill="#FF2287"/>
<path d="M77 4H76V5H77V4Z" fill="#FF2287"/>
<path d="M78 4H77V5H78V4Z" fill="#FF2287"/>
<path d="M79 4H78V5H79V4Z" fill="#FF2287"/>
<path d="M80 4H79V5H80V4Z" fill="#FF2287"/>
<path d="M81 4H80V5H81V4Z" fill="#FF2287"/>
<path d="M82 4H81V5H82V4Z" fill="#FF2287"/>
<path d="M83 4H82V5H83V4Z" fill="#FF2287"/>
<path d="M84 4H83V5H84V4Z" fill="#FF2287"/>
<path d="M85 4H84V5H85V4Z" fill="#FF2287"/>
<path d="M86 4H85V5H86V4Z" fill="#FF2287"/>
<path d="M87 4H86V5H87V4Z" fill="#FF2287"/>
<path d="M88 4H87V5H88V4Z" fill="#FF2287"/>
<path d="M89 4H88V5H89V4Z" fill="#FF2287"/>
<path d="M90 4H89V5H90V4Z" fill="#FF2287"/>
<path d="M91 4H90V5H91V4Z" fill="#FF2287"/>
<path d="M92 4H91V5H92V4Z" fill="#FF2287"/>
<path d="M93 4H92V5H93V4Z" fill="#FF2287"/>
<path d="M94 4H93V5H94V4Z" fill="#FF2287"/>
<path d="M95 4H94V5H95V4Z" fill="#FF2287"/>
<path d="M96 4H95V5H96V4Z" fill="#FF2287"/>
<path d="M97 4H96V5H97V4Z" fill="#FF2287"/>
<path d="M98 4H97V5H98V4Z" fill="#FF2287"/>
<path d="M99 4H98V5H99V4Z" fill="#FF2287"/>
<path d="M100 4H99V5H100V4Z" fill="#FF2287"/>
<path d="M101 4H100V5H101V4Z" fill="#FF2287"/>
<path d="M102 4H101V5H102V4Z" fill="#FF2287"/>
<path d="M103 4H102V5H103V4Z" fill="#FF2287"/>
<path d="M104 4H103V5H104V4Z" fill="#FF2287"/>
<path d="M105 4H104V5H105V4Z" fill="#FF2287"/>
<path d="M106 4H105V5H106V4Z" fill="#FF2287"/>
<path d="M107 4H106V5H107V4Z" fill="#FF2287"/>
<path d="M108 4H107V5H108V4Z" fill="#FF2287"/>
<path d="M109 4H108V5H109V4Z" fill="#FF2287"/>
<path d="M110 4H109V5H110V4Z" fill="#FF2287"/>
<path d="M111 4H110V5H111V4Z" fill="#FF2287"/>
<path d="M112 4H111V5H112V4Z" fill="#FF2287"/>
<path d="M113 4H112V5H113V4Z" fill="#FF2287"/>
<path d="M114 4H113V5H114V4Z" fill="#FF2287"/>
<path d="M115 4H114V5H115V4Z" fill="#FF2287"/>
<path d="M116 4H115V5H116V4Z" fill="#FF2287"/>
<path d="M117 4H116V5H117V4Z" fill="#FF2287"/>
<path d="M118 4H117V5H118V4Z" fill="#FF2287"/>
<path d="M119 4H118V5H119V4Z" fill="#FF2287"/>
<path d="M120 4H119V5H120V4Z" fill="#FF2287"/>
<path d="M121 4H120V5H121V4Z" fill="#FF2287"/>
<path d="M122 4H121V5H122V4Z" fill="#FF2287"/>
<path d="M123 4H122V5H123V4Z" fill="#FF2287"/>
<path d="M124 4H123V5H124V4Z" fill="#FF2287"/>
<path d="M125 4H124V5H125V4Z" fill="#FF2287"/>
<path d="M126 4H125V5H126V4Z" fill="#FF2287"/>
<path d="M127 4H126V5H127V4Z" fill="#FF2287"/>
<path d="M128 4H127V5H128V4Z" fill="#FF2287"/>
<path d="M129 4H128V5H129V4Z" fill="#FF2287"/>
<path d="M130 4H129V5H130V4Z" fill="#FF2287"/>
<path d="M131 4H130V5H131V4Z" fill="#FF2287"/>
<path d="M132 4H131V5H132V4Z" fill="#FF2287"/>
<path d="M133 4H132V5H133V4Z" fill="#FF2287"/>
<path d="M134 4H133V5H134V4Z" fill="#FF2287"/>
<path d="M135 4H134V5H135V4Z" fill="#FF2287"/>
<path d="M136 4H135V5H136V4Z" fill="#FF2287"/>
<path d="M137 4H136V5H137V4Z" fill="#FF2287"/>
<path d="M138 4H137V5H138V4Z" fill="#FF2287"/>
<path d="M139 4H138V5H139V4Z" fill="#FF2287"/>
<path d="M140 4H139V5H140V4Z" fill="#FF2287"/>
<path d="M141 4H140V5H141V4Z" fill="#FF2287"/>
<path d="M142 4H141V5H142V4Z" fill="#FF2287"/>
<path d="M143 4H142V5H143V4Z" fill="#FF2287"/>
<path d="M144 4H143V5H144V4Z" fill="#FF2287"/>
<path d="M145 4H144V5H145V4Z" fill="#FF2287"/>
<path d="M146 4H145V5H146V4Z" fill="#FF2287"/>
<path d="M147 4H146V5H147V4Z" fill="#FF2287"/>
<path d="M148 4H147V5H148V4Z" fill="#FF2287"/>
<path d="M149 4H148V5H149V4Z" fill="#FF2287"/>
<path d="M150 4H149V5H150V4Z" fill="#FF2287"/>
<path d="M151 4H150V5H151V4Z" fill="#FF2287"/>
<path d="M152 4H151V5H152V4Z" fill="#FF2287"/>
<path d="M153 4H152V5H153V4Z" fill="#FF2287"/>
<path d="M154 4H153V5H154V4Z" fill="#FF2287"/>
<path d="M155 4H154V5H155V4Z" fill="#FF2287"/>
<path d="M156 4H155V5H156V4Z" fill="#FF2287"/>
<path d="M157 4H156V5H157V4Z" fill="#FF2287"/>
<path d="M158 4H157V5H158V4Z" fill="#FF2287"/>
<path d="M159 4H158V5H159V4Z" fill="#FF2287"/>
<path d="M160 4H159V5H160V4Z" fill="#FF2287"/>
<path d="M161 4H160V5H161V4Z" fill="#FF2287"/>
<path d="M162 4H161V5H162V4Z" fill="#FF2287"/>
<path d="M163 4H162V5H163V4Z" fill="#FF2287"/>
<path d="M164 4H163V5H164V4Z" fill="#FF2287"/>
<path d="M165 4H164V5H165V4Z" fill="#FF2287"/>
<path d="M166 4H165V5H166V4Z" fill="#FF2287"/>
<path d="M167 4H166V5H167V4Z" fill="#FF2287"/>
<path d="M168 4H167V5H168V4Z" fill="#FF2287"/>
<path d="M169 4H168V5H169V4Z" fill="#FF2287"/>
<path d="M170 4H169V5H170V4Z" fill="#FF2287"/>
<path d="M171 4H170V5H171V4Z" fill="#FF2287"/>
<path d="M172 4H171V5H172V4Z" fill="#FF2287"/>
<path d="M173 4H172V5H173V4Z" fill="#FF2287"/>
<path d="M174 4H173V5H174V4Z" fill="#FF2287"/>
<path d="M175 4H174V5H175V4Z" fill="#FF2287"/>
<path d="M176 4H175V5H176V4Z" fill="#FF2287"/>
<path d="M177 4H176V5H177V4Z" fill="#FF2287"/>
<path d="M178 4H177V5H178V4Z" fill="#FF2287"/>
<path d="M179 4H178V5H179V4Z" fill="#FF2287"/>
<path d="M180 4H179V5H180V4Z" fill="#FF2287"/>
<path d="M181 4H180V5H181V4Z" fill="#FF2287"/>
<path d="M182 4H181V5H182V4Z" fill="#FF2287"/>
<path d="M183 4H182V5H183V4Z" fill="#FF2287"/>
<path d="M184 4H183V5H184V4Z" fill="#FF2287"/>
<path d="M185 4H184V5H185V4Z" fill="#FF2287"/>
<path d="M186 4H185V5H186V4Z" fill="#FF2287"/>
<path d="M187 4H186V5H187V4Z" fill="#FF2287"/>
<path d="M188 4H187V5H188V4Z" fill="#FF2287"/>
<path d="M189 4H188V5H189V4Z" fill="#FF2287"/>
<path d="M190 4H189V5H190V4Z" fill="#FF2287"/>
<path d="M191 4H190V5H191V4Z" fill="#FF2287"/>
<path d="M192 4H191V5H192V4Z" fill="#FF2287"/>
<path d="M193 4H192V5H193V4Z" fill="#FF2287"/>
<path d="M194 4H193V5H194V4Z" fill="#FF2287"/>
<path d="M195 4H194V5H195V4Z" fill="#FF2287"/>
<path d="M196 4H195V5H196V4Z" fill="#FF2287"/>
<path d="M197 4H196V5H197V4Z" fill="#FF2287"/>
<path d="M198 4H197V5H198V4Z" fill="#FF2287"/>
<path d="M199 4H198V5H199V4Z" fill="#FF2287"/>
<path d="M200 4H199V5H200V4Z" fill="#FF2287"/>
<path d="M201 4H200V5H201V4Z" fill="#FF2287"/>
<path d="M202 4H201V5H202V4Z" fill="#FF2287"/>
<path d="M203 4H202V5H203V4Z" fill="#FF2287"/>
<path d="M204 4H203V5H204V4Z" fill="#FF2287"/>
<path d="M205 4H204V5H205V4Z" fill="#FF2287"/>
<path d="M206 4H205V5H206V4Z" fill="#FF2287"/>
<path d="M207 4H206V5H207V4Z" fill="#FF2287"/>
<path d="M208 4H207V5H208V4Z" fill="#FF2287"/>
<path d="M209 4H208V5H209V4Z" fill="#FF2287"/>
<path d="M210 4H209V5H210V4Z" fill="#FF2287"/>
<path d="M211 4H210V5H211V4Z" fill="#FF2287"/>
<path d="M212 4H211V5H212V4Z" fill="#FF2287"/>
<path d="M213 4H212V5H213V4Z" fill="#FF2287"/>
<path d="M214 4H213V5H214V4Z" fill="#FF2287"/>
<path d="M215 4H214V5H215V4Z" fill="#FF2287"/>
<path d="M216 4H215V5H216V4Z" fill="#FF2287"/>
<path d="M217 4H216V5H217V4Z" fill="#FF2287"/>
<path d="M218 4H217V5H218V4Z" fill="#FF2287"/>
<path d="M219 4H218V5H219V4Z" fill="#FF2287"/>
<path d="M220 4H219V5H220V4Z" fill="#FF2287"/>
<path d="M221 4H220V5H221V4Z" fill="#FF2287"/>
<path d="M222 4H221V5H222V4Z" fill="#FF2287"/>
<path d="M223 4H222V5H223V4Z" fill="#FF2287"/>
<path d="M224 4H223V5H224V4Z" fill="#FF2287"/>
<path d="M1 5H0V6H1V5Z" fill="#FF2287"/>
<path d="M2 5H1V6H2V5Z" fill="#FF2287"/>
<path d="M221 5H220V6H221V5Z" fill="#FF2287"/>
<path d="M222 5H221V6H222V5Z" fill="#FF2287"/>
<path d="M223 5H222V6H223V5Z" fill="#FF2287"/>
<path d="M1 6H0V7H1V6Z" fill="#FF2287"/>
<path d="M2 6H1V7H2V6Z" fill="#FF2287"/>
<path d="M220 6H219V7H220V6Z" fill="#FF2287"/>
<path d="M221 6H220V7H221V6Z" fill="#FF2287"/>
<path d="M222 6H221V7H222V6Z" fill="#FF2287"/>
<path d="M1 7H0V8H1V7Z" fill="#FF2287"/>
<path d="M2 7H1V8H2V7Z" fill="#FF2287"/>
<path d="M15 7H14V8H15V7Z" fill="#AB1741"/>
<path d="M16 7H15V8H16V7Z" fill="#AB1741"/>
<path d="M20 7H19V8H20V7Z" fill="#AB1741"/>
<path d="M21 7H20V8H21V7Z" fill="#AB1741"/>
<path d="M219 7H218V8H219V7Z" fill="#FF2287"/>
<path d="M220 7H219V8H220V7Z" fill="#FF2287"/>
<path d="M221 7H220V8H221V7Z" fill="#FF2287"/>
<path d="M1 8H0V9H1V8Z" fill="#FF2287"/>
<path d="M2 8H1V9H2V8Z" fill="#FF2287"/>
<path d="M14 8H13V9H14V8Z" fill="#AB1741"/>
<path d="M15 8H14V9H15V8Z" fill="#AB1741"/>
<path d="M16 8H15V9H16V8Z" fill="#AB1741"/>
<path d="M17 8H16V9H17V8Z" fill="#AB1741"/>
<path d="M19 8H18V9H19V8Z" fill="#AB1741"/>
<path d="M20 8H19V9H20V8Z" fill="#AB1741"/>
<path d="M21 8H20V9H21V8Z" fill="#AB1741"/>
<path d="M22 8H21V9H22V8Z" fill="#AB1741"/>
<path d="M218 8H217V9H218V8Z" fill="#FF2287"/>
<path d="M219 8H218V9H219V8Z" fill="#FF2287"/>
<path d="M220 8H219V9H220V8Z" fill="#FF2287"/>
<path d="M1 9H0V10H1V9Z" fill="#FF2287"/>
<path d="M2 9H1V10H2V9Z" fill="#FF2287"/>
<path d="M13 9H12V10H13V9Z" fill="#AB1741"/>
<path d="M14 9H13V10H14V9Z" fill="#AB1741"/>
<path d="M15 9H14V10H15V9Z" fill="#AB1741"/>
<path d="M16 9H15V10H16V9Z" fill="#AB1741"/>
<path d="M17 9H16V10H17V9Z" fill="#AB1741"/>
<path d="M18 9H17V10H18V9Z" fill="#AB1741"/>
<path d="M19 9H18V10H19V9Z" fill="#AB1741"/>
<path d="M20 9H19V10H20V9Z" fill="#AB1741"/>
<path d="M21 9H20V10H21V9Z" fill="#AB1741"/>
<path d="M22 9H21V10H22V9Z" fill="#AB1741"/>
<path d="M23 9H22V10H23V9Z" fill="#AB1741"/>
<path d="M217 9H216V10H217V9Z" fill="#FF2287"/>
<path d="M218 9H217V10H218V9Z" fill="#FF2287"/>
<path d="M219 9H218V10H219V9Z" fill="#FF2287"/>
<path d="M1 10H0V11H1V10Z" fill="#FF2287"/>
<path d="M2 10H1V11H2V10Z" fill="#FF2287"/>
<path d="M12 10H11V11H12V10Z" fill="#AB1741"/>
<path d="M13 10H12V11H13V10Z" fill="#AB1741"/>
<path d="M14 10H13V11H14V10Z" fill="#AB1741"/>
<path d="M15 10H14V11H15V10Z" fill="#AB1741"/>
<path d="M16 10H15V11H16V10Z" fill="#AB1741"/>
<path d="M17 10H16V11H17V10Z" fill="#AB1741"/>
<path d="M18 10H17V11H18V10Z" fill="#AB1741"/>
<path d="M19 10H18V11H19V10Z" fill="#AB1741"/>
<path d="M20 10H19V11H20V10Z" fill="#AB1741"/>
<path d="M21 10H20V11H21V10Z" fill="#AB1741"/>
<path d="M22 10H21V11H22V10Z" fill="#AB1741"/>
<path d="M23 10H22V11H23V10Z" fill="#AB1741"/>
<path d="M24 10H23V11H24V10Z" fill="#AB1741"/>
<path d="M216 10H215V11H216V10Z" fill="#FF2287"/>
<path d="M217 10H216V11H217V10Z" fill="#FF2287"/>
<path d="M218 10H217V11H218V10Z" fill="#FF2287"/>
<path d="M1 11H0V12H1V11Z" fill="#FF2287"/>
<path d="M2 11H1V12H2V11Z" fill="#FF2287"/>
<path d="M13 11H12V12H13V11Z" fill="#AB1741"/>
<path d="M14 11H13V12H14V11Z" fill="#AB1741"/>
<path d="M15 11H14V12H15V11Z" fill="#AB1741"/>
<path d="M16 11H15V12H16V11Z" fill="#AB1741"/>
<path d="M17 11H16V12H17V11Z" fill="#AB1741"/>
<path d="M18 11H17V12H18V11Z" fill="#AB1741"/>
<path d="M19 11H18V12H19V11Z" fill="#AB1741"/>
<path d="M20 11H19V12H20V11Z" fill="#AB1741"/>
<path d="M21 11H20V12H21V11Z" fill="#AB1741"/>
<path d="M22 11H21V12H22V11Z" fill="#AB1741"/>
<path d="M23 11H22V12H23V11Z" fill="#AB1741"/>
<path d="M215 11H214V12H215V11Z" fill="#FF2287"/>
<path d="M216 11H215V12H216V11Z" fill="#FF2287"/>
<path d="M217 11H216V12H217V11Z" fill="#FF2287"/>
<path d="M1 12H0V13H1V12Z" fill="#FF2287"/>
<path d="M2 12H1V13H2V12Z" fill="#FF2287"/>
<path d="M14 12H13V13H14V12Z" fill="#AB1741"/>
<path d="M15 12H14V13H15V12Z" fill="#AB1741"/>
<path d="M16 12H15V13H16V12Z" fill="#AB1741"/>
<path d="M17 12H16V13H17V12Z" fill="#AB1741"/>
<path d="M18 12H17V13H18V12Z" fill="#AB1741"/>
<path d="M19 12H18V13H19V12Z" fill="#AB1741"/>
<path d="M20 12H19V13H20V12Z" fill="#AB1741"/>
<path d="M21 12H20V13H21V12Z" fill="#AB1741"/>
<path d="M22 12H21V13H22V12Z" fill="#AB1741"/>
<path d="M214 12H213V13H214V12Z" fill="#FF2287"/>
<path d="M215 12H214V13H215V12Z" fill="#FF2287"/>
<path d="M216 12H215V13H216V12Z" fill="#FF2287"/>
<path d="M1 13H0V14H1V13Z" fill="#FF2287"/>
<path d="M2 13H1V14H2V13Z" fill="#FF2287"/>
<path d="M15 13H14V14H15V13Z" fill="#AB1741"/>
<path d="M16 13H15V14H16V13Z" fill="#AB1741"/>
<path d="M17 13H16V14H17V13Z" fill="#AB1741"/>
<path d="M18 13H17V14H18V13Z" fill="#AB1741"/>
<path d="M19 13H18V14H19V13Z" fill="#AB1741"/>
<path d="M20 13H19V14H20V13Z" fill="#AB1741"/>
<path d="M21 13H20V14H21V13Z" fill="#AB1741"/>
<path d="M213 13H212V14H213V13Z" fill="#FF2287"/>
<path d="M214 13H213V14H214V13Z" fill="#FF2287"/>
<path d="M215 13H214V14H215V13Z" fill="#FF2287"/>
<path d="M1 14H0V15H1V14Z" fill="#FF2287"/>
<path d="M2 14H1V15H2V14Z" fill="#FF2287"/>
<path d="M16 14H15V15H16V14Z" fill="#AB1741"/>
<path d="M17 14H16V15H17V14Z" fill="#AB1741"/>
<path d="M18 14H17V15H18V14Z" fill="#AB1741"/>
<path d="M19 14H18V15H19V14Z" fill="#AB1741"/>
<path d="M20 14H19V15H20V14Z" fill="#AB1741"/>
<path d="M212 14H211V15H212V14Z" fill="#FF2287"/>
<path d="M213 14H212V15H213V14Z" fill="#FF2287"/>
<path d="M214 14H213V15H214V14Z" fill="#FF2287"/>
<path d="M1 15H0V16H1V15Z" fill="#FF2287"/>
<path d="M2 15H1V16H2V15Z" fill="#FF2287"/>
<path d="M17 15H16V16H17V15Z" fill="#AB1741"/>
<path d="M18 15H17V16H18V15Z" fill="#AB1741"/>
<path d="M19 15H18V16H19V15Z" fill="#AB1741"/>
<path d="M211 15H210V16H211V15Z" fill="#FF2287"/>
<path d="M212 15H211V16H212V15Z" fill="#FF2287"/>
<path d="M213 15H212V16H213V15Z" fill="#FF2287"/>
<path d="M1 16H0V17H1V16Z" fill="#FF2287"/>
<path d="M2 16H1V17H2V16Z" fill="#FF2287"/>
<path d="M18 16H17V17H18V16Z" fill="#AB1741"/>
<path d="M210 16H209V17H210V16Z" fill="#FF2287"/>
<path d="M211 16H210V17H211V16Z" fill="#FF2287"/>
<path d="M212 16H211V17H212V16Z" fill="#FF2287"/>
<path d="M1 17H0V18H1V17Z" fill="#FF2287"/>
<path d="M2 17H1V18H2V17Z" fill="#FF2287"/>
<path d="M209 17H208V18H209V17Z" fill="#FF2287"/>
<path d="M210 17H209V18H210V17Z" fill="#FF2287"/>
<path d="M211 17H210V18H211V17Z" fill="#FF2287"/>
<path d="M1 18H0V19H1V18Z" fill="#FF2287"/>
<path d="M2 18H1V19H2V18Z" fill="#FF2287"/>
<path d="M208 18H207V19H208V18Z" fill="#FF2287"/>
<path d="M209 18H208V19H209V18Z" fill="#FF2287"/>
<path d="M210 18H209V19H210V18Z" fill="#FF2287"/>
<path d="M1 19H0V20H1V19Z" fill="#FF2287"/>
<path d="M2 19H1V20H2V19Z" fill="#FF2287"/>
<path d="M207 19H206V20H207V19Z" fill="#FF2287"/>
<path d="M208 19H207V20H208V19Z" fill="#FF2287"/>
<path d="M209 19H208V20H209V19Z" fill="#FF2287"/>
<path d="M1 20H0V21H1V20Z" fill="#FF2287"/>
<path d="M2 20H1V21H2V20Z" fill="#FF2287"/>
<path d="M9 20H2V21H9V20Z" fill="#FF2287"/>
<path d="M10 20H9V21H10V20Z" fill="#FF2287"/>
<path d="M11 20H10V21H11V20Z" fill="#FF2287"/>
<path d="M12 20H11V21H12V20Z" fill="#FF2287"/>
<path d="M13 20H12V21H13V20Z" fill="#FF2287"/>
<path d="M14 20H13V21H14V20Z" fill="#FF2287"/>
<path d="M15 20H14V21H15V20Z" fill="#FF2287"/>
<path d="M16 20H15V21H16V20Z" fill="#FF2287"/>
<path d="M17 20H16V21H17V20Z" fill="#FF2287"/>
<path d="M18 20H17V21H18V20Z" fill="#FF2287"/>
<path d="M19 20H18V21H19V20Z" fill="#FF2287"/>
<path d="M20 20H19V21H20V20Z" fill="#FF2287"/>
<path d="M21 20H20V21H21V20Z" fill="#FF2287"/>
<path d="M22 20H21V21H22V20Z" fill="#FF2287"/>
<path d="M23 20H22V21H23V20Z" fill="#FF2287"/>
<path d="M24 20H23V21H24V20Z" fill="#FF2287"/>
<path d="M25 20H24V21H25V20Z" fill="#FF2287"/>
<path d="M26 20H25V21H26V20Z" fill="#FF2287"/>
<path d="M27 20H26V21H27V20Z" fill="#FF2287"/>
<path d="M28 20H27V21H28V20Z" fill="#FF2287"/>
<path d="M29 20H28V21H29V20Z" fill="#FF2287"/>
<path d="M30 20H29V21H30V20Z" fill="#FF2287"/>
<path d="M31 20H30V21H31V20Z" fill="#FF2287"/>
<path d="M32 20H31V21H32V20Z" fill="#FF2287"/>
<path d="M33 20H32V21H33V20Z" fill="#FF2287"/>
<path d="M34 20H33V21H34V20Z" fill="#FF2287"/>
<path d="M35 20H34V21H35V20Z" fill="#FF2287"/>
<path d="M36 20H35V21H36V20Z" fill="#FF2287"/>
<path d="M37 20H36V21H37V20Z" fill="#FF2287"/>
<path d="M38 20H37V21H38V20Z" fill="#FF2287"/>
<path d="M39 20H38V21H39V20Z" fill="#FF2287"/>
<path d="M40 20H39V21H40V20Z" fill="#FF2287"/>
<path d="M41 20H40V21H41V20Z" fill="#FF2287"/>
<path d="M42 20H41V21H42V20Z" fill="#FF2287"/>
<path d="M43 20H42V21H43V20Z" fill="#FF2287"/>
<path d="M44 20H43V21H44V20Z" fill="#FF2287"/>
<path d="M45 20H44V21H45V20Z" fill="#FF2287"/>
<path d="M46 20H45V21H46V20Z" fill="#FF2287"/>
<path d="M47 20H46V21H47V20Z" fill="#FF2287"/>
<path d="M48 20H47V21H48V20Z" fill="#FF2287"/>
<path d="M49 20H48V21H49V20Z" fill="#FF2287"/>
<path d="M50 20H49V21H50V20Z" fill="#FF2287"/>
<path d="M51 20H50V21H51V20Z" fill="#FF2287"/>
<path d="M52 20H51V21H52V20Z" fill="#FF2287"/>
<path d="M53 20H52V21H53V20Z" fill="#FF2287"/>
<path d="M54 20H53V21H54V20Z" fill="#FF2287"/>
<path d="M55 20H54V21H55V20Z" fill="#FF2287"/>
<path d="M56 20H55V21H56V20Z" fill="#FF2287"/>
<path d="M57 20H56V21H57V20Z" fill="#FF2287"/>
<path d="M58 20H57V21H58V20Z" fill="#FF2287"/>
<path d="M59 20H58V21H59V20Z" fill="#FF2287"/>
<path d="M60 20H59V21H60V20Z" fill="#FF2287"/>
<path d="M61 20H60V21H61V20Z" fill="#FF2287"/>
<path d="M62 20H61V21H62V20Z" fill="#FF2287"/>
<path d="M63 20H62V21H63V20Z" fill="#FF2287"/>
<path d="M64 20H63V21H64V20Z" fill="#FF2287"/>
<path d="M65 20H64V21H65V20Z" fill="#FF2287"/>
<path d="M66 20H65V21H66V20Z" fill="#FF2287"/>
<path d="M67 20H66V21H67V20Z" fill="#FF2287"/>
<path d="M68 20H67V21H68V20Z" fill="#FF2287"/>
<path d="M69 20H68V21H69V20Z" fill="#FF2287"/>
<path d="M70 20H69V21H70V20Z" fill="#FF2287"/>
<path d="M71 20H70V21H71V20Z" fill="#FF2287"/>
<path d="M72 20H71V21H72V20Z" fill="#FF2287"/>
<path d="M73 20H72V21H73V20Z" fill="#FF2287"/>
<path d="M74 20H73V21H74V20Z" fill="#FF2287"/>
<path d="M75 20H74V21H75V20Z" fill="#FF2287"/>
<path d="M76 20H75V21H76V20Z" fill="#FF2287"/>
<path d="M77 20H76V21H77V20Z" fill="#FF2287"/>
<path d="M78 20H77V21H78V20Z" fill="#FF2287"/>
<path d="M79 20H78V21H79V20Z" fill="#FF2287"/>
<path d="M80 20H79V21H80V20Z" fill="#FF2287"/>
<path d="M81 20H80V21H81V20Z" fill="#FF2287"/>
<path d="M82 20H81V21H82V20Z" fill="#FF2287"/>
<path d="M83 20H82V21H83V20Z" fill="#FF2287"/>
<path d="M84 20H83V21H84V20Z" fill="#FF2287"/>
<path d="M85 20H84V21H85V20Z" fill="#FF2287"/>
<path d="M86 20H85V21H86V20Z" fill="#FF2287"/>
<path d="M87 20H86V21H87V20Z" fill="#FF2287"/>
<path d="M88 20H87V21H88V20Z" fill="#FF2287"/>
<path d="M89 20H88V21H89V20Z" fill="#FF2287"/>
<path d="M90 20H89V21H90V20Z" fill="#FF2287"/>
<path d="M91 20H90V21H91V20Z" fill="#FF2287"/>
<path d="M92 20H91V21H92V20Z" fill="#FF2287"/>
<path d="M93 20H92V21H93V20Z" fill="#FF2287"/>
<path d="M94 20H93V21H94V20Z" fill="#FF2287"/>
<path d="M95 20H94V21H95V20Z" fill="#FF2287"/>
<path d="M96 20H95V21H96V20Z" fill="#FF2287"/>
<path d="M97 20H96V21H97V20Z" fill="#FF2287"/>
<path d="M98 20H97V21H98V20Z" fill="#FF2287"/>
<path d="M99 20H98V21H99V20Z" fill="#FF2287"/>
<path d="M100 20H99V21H100V20Z" fill="#FF2287"/>
<path d="M101 20H100V21H101V20Z" fill="#FF2287"/>
<path d="M102 20H101V21H102V20Z" fill="#FF2287"/>
<path d="M103 20H102V21H103V20Z" fill="#FF2287"/>
<path d="M104 20H103V21H104V20Z" fill="#FF2287"/>
<path d="M105 20H104V21H105V20Z" fill="#FF2287"/>
<path d="M106 20H105V21H106V20Z" fill="#FF2287"/>
<path d="M107 20H106V21H107V20Z" fill="#FF2287"/>
<path d="M108 20H107V21H108V20Z" fill="#FF2287"/>
<path d="M109 20H108V21H109V20Z" fill="#FF2287"/>
<path d="M110 20H109V21H110V20Z" fill="#FF2287"/>
<path d="M111 20H110V21H111V20Z" fill="#FF2287"/>
<path d="M112 20H111V21H112V20Z" fill="#FF2287"/>
<path d="M113 20H112V21H113V20Z" fill="#FF2287"/>
<path d="M114 20H113V21H114V20Z" fill="#FF2287"/>
<path d="M115 20H114V21H115V20Z" fill="#FF2287"/>
<path d="M116 20H115V21H116V20Z" fill="#FF2287"/>
<path d="M117 20H116V21H117V20Z" fill="#FF2287"/>
<path d="M118 20H117V21H118V20Z" fill="#FF2287"/>
<path d="M119 20H118V21H119V20Z" fill="#FF2287"/>
<path d="M120 20H119V21H120V20Z" fill="#FF2287"/>
<path d="M121 20H120V21H121V20Z" fill="#FF2287"/>
<path d="M122 20H121V21H122V20Z" fill="#FF2287"/>
<path d="M123 20H122V21H123V20Z" fill="#FF2287"/>
<path d="M124 20H123V21H124V20Z" fill="#FF2287"/>
<path d="M125 20H124V21H125V20Z" fill="#FF2287"/>
<path d="M126 20H125V21H126V20Z" fill="#FF2287"/>
<path d="M127 20H126V21H127V20Z" fill="#FF2287"/>
<path d="M128 20H127V21H128V20Z" fill="#FF2287"/>
<path d="M129 20H128V21H129V20Z" fill="#FF2287"/>
<path d="M130 20H129V21H130V20Z" fill="#FF2287"/>
<path d="M131 20H130V21H131V20Z" fill="#FF2287"/>
<path d="M132 20H131V21H132V20Z" fill="#FF2287"/>
<path d="M133 20H132V21H133V20Z" fill="#FF2287"/>
<path d="M134 20H133V21H134V20Z" fill="#FF2287"/>
<path d="M135 20H134V21H135V20Z" fill="#FF2287"/>
<path d="M136 20H135V21H136V20Z" fill="#FF2287"/>
<path d="M137 20H136V21H137V20Z" fill="#FF2287"/>
<path d="M138 20H137V21H138V20Z" fill="#FF2287"/>
<path d="M139 20H138V21H139V20Z" fill="#FF2287"/>
<path d="M140 20H139V21H140V20Z" fill="#FF2287"/>
<path d="M141 20H140V21H141V20Z" fill="#FF2287"/>
<path d="M142 20H141V21H142V20Z" fill="#FF2287"/>
<path d="M143 20H142V21H143V20Z" fill="#FF2287"/>
<path d="M144 20H143V21H144V20Z" fill="#FF2287"/>
<path d="M145 20H144V21H145V20Z" fill="#FF2287"/>
<path d="M146 20H145V21H146V20Z" fill="#FF2287"/>
<path d="M147 20H146V21H147V20Z" fill="#FF2287"/>
<path d="M148 20H147V21H148V20Z" fill="#FF2287"/>
<path d="M149 20H148V21H149V20Z" fill="#FF2287"/>
<path d="M150 20H149V21H150V20Z" fill="#FF2287"/>
<path d="M151 20H150V21H151V20Z" fill="#FF2287"/>
<path d="M152 20H151V21H152V20Z" fill="#FF2287"/>
<path d="M153 20H152V21H153V20Z" fill="#FF2287"/>
<path d="M154 20H153V21H154V20Z" fill="#FF2287"/>
<path d="M155 20H154V21H155V20Z" fill="#FF2287"/>
<path d="M156 20H155V21H156V20Z" fill="#FF2287"/>
<path d="M157 20H156V21H157V20Z" fill="#FF2287"/>
<path d="M158 20H157V21H158V20Z" fill="#FF2287"/>
<path d="M159 20H158V21H159V20Z" fill="#FF2287"/>
<path d="M160 20H159V21H160V20Z" fill="#FF2287"/>
<path d="M161 20H160V21H161V20Z" fill="#FF2287"/>
<path d="M162 20H161V21H162V20Z" fill="#FF2287"/>
<path d="M163 20H162V21H163V20Z" fill="#FF2287"/>
<path d="M164 20H163V21H164V20Z" fill="#FF2287"/>
<path d="M165 20H164V21H165V20Z" fill="#FF2287"/>
<path d="M166 20H165V21H166V20Z" fill="#FF2287"/>
<path d="M167 20H166V21H167V20Z" fill="#FF2287"/>
<path d="M168 20H167V21H168V20Z" fill="#FF2287"/>
<path d="M169 20H168V21H169V20Z" fill="#FF2287"/>
<path d="M170 20H169V21H170V20Z" fill="#FF2287"/>
<path d="M171 20H170V21H171V20Z" fill="#FF2287"/>
<path d="M172 20H171V21H172V20Z" fill="#FF2287"/>
<path d="M173 20H172V21H173V20Z" fill="#FF2287"/>
<path d="M174 20H173V21H174V20Z" fill="#FF2287"/>
<path d="M175 20H174V21H175V20Z" fill="#FF2287"/>
<path d="M176 20H175V21H176V20Z" fill="#FF2287"/>
<path d="M177 20H176V21H177V20Z" fill="#FF2287"/>
<path d="M178 20H177V21H178V20Z" fill="#FF2287"/>
<path d="M179 20H178V21H179V20Z" fill="#FF2287"/>
<path d="M180 20H179V21H180V20Z" fill="#FF2287"/>
<path d="M181 20H180V21H181V20Z" fill="#FF2287"/>
<path d="M182 20H181V21H182V20Z" fill="#FF2287"/>
<path d="M183 20H182V21H183V20Z" fill="#FF2287"/>
<path d="M184 20H183V21H184V20Z" fill="#FF2287"/>
<path d="M185 20H184V21H185V20Z" fill="#FF2287"/>
<path d="M186 20H185V21H186V20Z" fill="#FF2287"/>
<path d="M187 20H186V21H187V20Z" fill="#FF2287"/>
<path d="M188 20H187V21H188V20Z" fill="#FF2287"/>
<path d="M189 20H188V21H189V20Z" fill="#FF2287"/>
<path d="M190 20H189V21H190V20Z" fill="#FF2287"/>
<path d="M191 20H190V21H191V20Z" fill="#FF2287"/>
<path d="M192 20H191V21H192V20Z" fill="#FF2287"/>
<path d="M193 20H192V21H193V20Z" fill="#FF2287"/>
<path d="M194 20H193V21H194V20Z" fill="#FF2287"/>
<path d="M195 20H194V21H195V20Z" fill="#FF2287"/>
<path d="M196 20H195V21H196V20Z" fill="#FF2287"/>
<path d="M197 20H196V21H197V20Z" fill="#FF2287"/>
<path d="M198 20H197V21H198V20Z" fill="#FF2287"/>
<path d="M199 20H198V21H199V20Z" fill="#FF2287"/>
<path d="M200 20H199V21H200V20Z" fill="#FF2287"/>
<path d="M201 20H200V21H201V20Z" fill="#FF2287"/>
<path d="M202 20H201V21H202V20Z" fill="#FF2287"/>
<path d="M203 20H202V21H203V20Z" fill="#FF2287"/>
<path d="M204 20H203V21H204V20Z" fill="#FF2287"/>
<path d="M205 20H204V21H205V20Z" fill="#FF2287"/>
<path d="M206 20H205V21H206V20Z" fill="#FF2287"/>
<path d="M207 20H206V21H207V20Z" fill="#FF2287"/>
<path d="M208 20H207V21H208V20Z" fill="#FF2287"/>
<path d="M1 21H0V22H1V21Z" fill="#FF2287"/>
<path d="M2 21H1V22H2V21Z" fill="#FF2287"/>
<path d="M9 21H2V22H9V21Z" fill="#FF2287"/>
<path d="M10 21H9V22H10V21Z" fill="#FF2287"/>
<path d="M11 21H10V22H11V21Z" fill="#FF2287"/>
<path d="M12 21H11V22H12V21Z" fill="#FF2287"/>
<path d="M13 21H12V22H13V21Z" fill="#FF2287"/>
<path d="M14 21H13V22H14V21Z" fill="#FF2287"/>
<path d="M15 21H14V22H15V21Z" fill="#FF2287"/>
<path d="M16 21H15V22H16V21Z" fill="#FF2287"/>
<path d="M17 21H16V22H17V21Z" fill="#FF2287"/>
<path d="M18 21H17V22H18V21Z" fill="#FF2287"/>
<path d="M19 21H18V22H19V21Z" fill="#FF2287"/>
<path d="M20 21H19V22H20V21Z" fill="#FF2287"/>
<path d="M21 21H20V22H21V21Z" fill="#FF2287"/>
<path d="M22 21H21V22H22V21Z" fill="#FF2287"/>
<path d="M23 21H22V22H23V21Z" fill="#FF2287"/>
<path d="M24 21H23V22H24V21Z" fill="#FF2287"/>
<path d="M25 21H24V22H25V21Z" fill="#FF2287"/>
<path d="M26 21H25V22H26V21Z" fill="#FF2287"/>
<path d="M27 21H26V22H27V21Z" fill="#FF2287"/>
<path d="M28 21H27V22H28V21Z" fill="#FF2287"/>
<path d="M29 21H28V22H29V21Z" fill="#FF2287"/>
<path d="M30 21H29V22H30V21Z" fill="#FF2287"/>
<path d="M31 21H30V22H31V21Z" fill="#FF2287"/>
<path d="M32 21H31V22H32V21Z" fill="#FF2287"/>
<path d="M33 21H32V22H33V21Z" fill="#FF2287"/>
<path d="M34 21H33V22H34V21Z" fill="#FF2287"/>
<path d="M35 21H34V22H35V21Z" fill="#FF2287"/>
<path d="M36 21H35V22H36V21Z" fill="#FF2287"/>
<path d="M37 21H36V22H37V21Z" fill="#FF2287"/>
<path d="M38 21H37V22H38V21Z" fill="#FF2287"/>
<path d="M39 21H38V22H39V21Z" fill="#FF2287"/>
<path d="M40 21H39V22H40V21Z" fill="#FF2287"/>
<path d="M41 21H40V22H41V21Z" fill="#FF2287"/>
<path d="M42 21H41V22H42V21Z" fill="#FF2287"/>
<path d="M43 21H42V22H43V21Z" fill="#FF2287"/>
<path d="M44 21H43V22H44V21Z" fill="#FF2287"/>
<path d="M45 21H44V22H45V21Z" fill="#FF2287"/>
<path d="M46 21H45V22H46V21Z" fill="#FF2287"/>
<path d="M47 21H46V22H47V21Z" fill="#FF2287"/>
<path d="M48 21H47V22H48V21Z" fill="#FF2287"/>
<path d="M49 21H48V22H49V21Z" fill="#FF2287"/>
<path d="M50 21H49V22H50V21Z" fill="#FF2287"/>
<path d="M51 21H50V22H51V21Z" fill="#FF2287"/>
<path d="M52 21H51V22H52V21Z" fill="#FF2287"/>
<path d="M53 21H52V22H53V21Z" fill="#FF2287"/>
<path d="M54 21H53V22H54V21Z" fill="#FF2287"/>
<path d="M55 21H54V22H55V21Z" fill="#FF2287"/>
<path d="M56 21H55V22H56V21Z" fill="#FF2287"/>
<path d="M57 21H56V22H57V21Z" fill="#FF2287"/>
<path d="M58 21H57V22H58V21Z" fill="#FF2287"/>
<path d="M59 21H58V22H59V21Z" fill="#FF2287"/>
<path d="M60 21H59V22H60V21Z" fill="#FF2287"/>
<path d="M61 21H60V22H61V21Z" fill="#FF2287"/>
<path d="M62 21H61V22H62V21Z" fill="#FF2287"/>
<path d="M63 21H62V22H63V21Z" fill="#FF2287"/>
<path d="M64 21H63V22H64V21Z" fill="#FF2287"/>
<path d="M65 21H64V22H65V21Z" fill="#FF2287"/>
<path d="M66 21H65V22H66V21Z" fill="#FF2287"/>
<path d="M67 21H66V22H67V21Z" fill="#FF2287"/>
<path d="M68 21H67V22H68V21Z" fill="#FF2287"/>
<path d="M69 21H68V22H69V21Z" fill="#FF2287"/>
<path d="M70 21H69V22H70V21Z" fill="#FF2287"/>
<path d="M71 21H70V22H71V21Z" fill="#FF2287"/>
<path d="M72 21H71V22H72V21Z" fill="#FF2287"/>
<path d="M73 21H72V22H73V21Z" fill="#FF2287"/>
<path d="M74 21H73V22H74V21Z" fill="#FF2287"/>
<path d="M75 21H74V22H75V21Z" fill="#FF2287"/>
<path d="M76 21H75V22H76V21Z" fill="#FF2287"/>
<path d="M77 21H76V22H77V21Z" fill="#FF2287"/>
<path d="M78 21H77V22H78V21Z" fill="#FF2287"/>
<path d="M79 21H78V22H79V21Z" fill="#FF2287"/>
<path d="M80 21H79V22H80V21Z" fill="#FF2287"/>
<path d="M81 21H80V22H81V21Z" fill="#FF2287"/>
<path d="M82 21H81V22H82V21Z" fill="#FF2287"/>
<path d="M83 21H82V22H83V21Z" fill="#FF2287"/>
<path d="M84 21H83V22H84V21Z" fill="#FF2287"/>
<path d="M85 21H84V22H85V21Z" fill="#FF2287"/>
<path d="M86 21H85V22H86V21Z" fill="#FF2287"/>
<path d="M87 21H86V22H87V21Z" fill="#FF2287"/>
<path d="M88 21H87V22H88V21Z" fill="#FF2287"/>
<path d="M89 21H88V22H89V21Z" fill="#FF2287"/>
<path d="M90 21H89V22H90V21Z" fill="#FF2287"/>
<path d="M91 21H90V22H91V21Z" fill="#FF2287"/>
<path d="M92 21H91V22H92V21Z" fill="#FF2287"/>
<path d="M93 21H92V22H93V21Z" fill="#FF2287"/>
<path d="M94 21H93V22H94V21Z" fill="#FF2287"/>
<path d="M95 21H94V22H95V21Z" fill="#FF2287"/>
<path d="M96 21H95V22H96V21Z" fill="#FF2287"/>
<path d="M97 21H96V22H97V21Z" fill="#FF2287"/>
<path d="M98 21H97V22H98V21Z" fill="#FF2287"/>
<path d="M99 21H98V22H99V21Z" fill="#FF2287"/>
<path d="M100 21H99V22H100V21Z" fill="#FF2287"/>
<path d="M101 21H100V22H101V21Z" fill="#FF2287"/>
<path d="M102 21H101V22H102V21Z" fill="#FF2287"/>
<path d="M103 21H102V22H103V21Z" fill="#FF2287"/>
<path d="M104 21H103V22H104V21Z" fill="#FF2287"/>
<path d="M105 21H104V22H105V21Z" fill="#FF2287"/>
<path d="M106 21H105V22H106V21Z" fill="#FF2287"/>
<path d="M107 21H106V22H107V21Z" fill="#FF2287"/>
<path d="M108 21H107V22H108V21Z" fill="#FF2287"/>
<path d="M109 21H108V22H109V21Z" fill="#FF2287"/>
<path d="M110 21H109V22H110V21Z" fill="#FF2287"/>
<path d="M111 21H110V22H111V21Z" fill="#FF2287"/>
<path d="M112 21H111V22H112V21Z" fill="#FF2287"/>
<path d="M113 21H112V22H113V21Z" fill="#FF2287"/>
<path d="M114 21H113V22H114V21Z" fill="#FF2287"/>
<path d="M115 21H114V22H115V21Z" fill="#FF2287"/>
<path d="M116 21H115V22H116V21Z" fill="#FF2287"/>
<path d="M117 21H116V22H117V21Z" fill="#FF2287"/>
<path d="M118 21H117V22H118V21Z" fill="#FF2287"/>
<path d="M119 21H118V22H119V21Z" fill="#FF2287"/>
<path d="M120 21H119V22H120V21Z" fill="#FF2287"/>
<path d="M121 21H120V22H121V21Z" fill="#FF2287"/>
<path d="M122 21H121V22H122V21Z" fill="#FF2287"/>
<path d="M123 21H122V22H123V21Z" fill="#FF2287"/>
<path d="M124 21H123V22H124V21Z" fill="#FF2287"/>
<path d="M125 21H124V22H125V21Z" fill="#FF2287"/>
<path d="M126 21H125V22H126V21Z" fill="#FF2287"/>
<path d="M127 21H126V22H127V21Z" fill="#FF2287"/>
<path d="M128 21H127V22H128V21Z" fill="#FF2287"/>
<path d="M129 21H128V22H129V21Z" fill="#FF2287"/>
<path d="M130 21H129V22H130V21Z" fill="#FF2287"/>
<path d="M131 21H130V22H131V21Z" fill="#FF2287"/>
<path d="M132 21H131V22H132V21Z" fill="#FF2287"/>
<path d="M133 21H132V22H133V21Z" fill="#FF2287"/>
<path d="M134 21H133V22H134V21Z" fill="#FF2287"/>
<path d="M135 21H134V22H135V21Z" fill="#FF2287"/>
<path d="M136 21H135V22H136V21Z" fill="#FF2287"/>
<path d="M137 21H136V22H137V21Z" fill="#FF2287"/>
<path d="M138 21H137V22H138V21Z" fill="#FF2287"/>
<path d="M139 21H138V22H139V21Z" fill="#FF2287"/>
<path d="M140 21H139V22H140V21Z" fill="#FF2287"/>
<path d="M141 21H140V22H141V21Z" fill="#FF2287"/>
<path d="M142 21H141V22H142V21Z" fill="#FF2287"/>
<path d="M143 21H142V22H143V21Z" fill="#FF2287"/>
<path d="M144 21H143V22H144V21Z" fill="#FF2287"/>
<path d="M145 21H144V22H145V21Z" fill="#FF2287"/>
<path d="M146 21H145V22H146V21Z" fill="#FF2287"/>
<path d="M147 21H146V22H147V21Z" fill="#FF2287"/>
<path d="M148 21H147V22H148V21Z" fill="#FF2287"/>
<path d="M149 21H148V22H149V21Z" fill="#FF2287"/>
<path d="M150 21H149V22H150V21Z" fill="#FF2287"/>
<path d="M151 21H150V22H151V21Z" fill="#FF2287"/>
<path d="M152 21H151V22H152V21Z" fill="#FF2287"/>
<path d="M153 21H152V22H153V21Z" fill="#FF2287"/>
<path d="M154 21H153V22H154V21Z" fill="#FF2287"/>
<path d="M155 21H154V22H155V21Z" fill="#FF2287"/>
<path d="M156 21H155V22H156V21Z" fill="#FF2287"/>
<path d="M157 21H156V22H157V21Z" fill="#FF2287"/>
<path d="M158 21H157V22H158V21Z" fill="#FF2287"/>
<path d="M159 21H158V22H159V21Z" fill="#FF2287"/>
<path d="M160 21H159V22H160V21Z" fill="#FF2287"/>
<path d="M161 21H160V22H161V21Z" fill="#FF2287"/>
<path d="M162 21H161V22H162V21Z" fill="#FF2287"/>
<path d="M163 21H162V22H163V21Z" fill="#FF2287"/>
<path d="M164 21H163V22H164V21Z" fill="#FF2287"/>
<path d="M165 21H164V22H165V21Z" fill="#FF2287"/>
<path d="M166 21H165V22H166V21Z" fill="#FF2287"/>
<path d="M167 21H166V22H167V21Z" fill="#FF2287"/>
<path d="M168 21H167V22H168V21Z" fill="#FF2287"/>
<path d="M169 21H168V22H169V21Z" fill="#FF2287"/>
<path d="M170 21H169V22H170V21Z" fill="#FF2287"/>
<path d="M171 21H170V22H171V21Z" fill="#FF2287"/>
<path d="M172 21H171V22H172V21Z" fill="#FF2287"/>
<path d="M173 21H172V22H173V21Z" fill="#FF2287"/>
<path d="M174 21H173V22H174V21Z" fill="#FF2287"/>
<path d="M175 21H174V22H175V21Z" fill="#FF2287"/>
<path d="M176 21H175V22H176V21Z" fill="#FF2287"/>
<path d="M177 21H176V22H177V21Z" fill="#FF2287"/>
<path d="M178 21H177V22H178V21Z" fill="#FF2287"/>
<path d="M179 21H178V22H179V21Z" fill="#FF2287"/>
<path d="M180 21H179V22H180V21Z" fill="#FF2287"/>
<path d="M181 21H180V22H181V21Z" fill="#FF2287"/>
<path d="M182 21H181V22H182V21Z" fill="#FF2287"/>
<path d="M183 21H182V22H183V21Z" fill="#FF2287"/>
<path d="M184 21H183V22H184V21Z" fill="#FF2287"/>
<path d="M185 21H184V22H185V21Z" fill="#FF2287"/>
<path d="M186 21H185V22H186V21Z" fill="#FF2287"/>
<path d="M187 21H186V22H187V21Z" fill="#FF2287"/>
<path d="M188 21H187V22H188V21Z" fill="#FF2287"/>
<path d="M189 21H188V22H189V21Z" fill="#FF2287"/>
<path d="M190 21H189V22H190V21Z" fill="#FF2287"/>
<path d="M191 21H190V22H191V21Z" fill="#FF2287"/>
<path d="M192 21H191V22H192V21Z" fill="#FF2287"/>
<path d="M193 21H192V22H193V21Z" fill="#FF2287"/>
<path d="M194 21H193V22H194V21Z" fill="#FF2287"/>
<path d="M195 21H194V22H195V21Z" fill="#FF2287"/>
<path d="M196 21H195V22H196V21Z" fill="#FF2287"/>
<path d="M197 21H196V22H197V21Z" fill="#FF2287"/>
<path d="M198 21H197V22H198V21Z" fill="#FF2287"/>
<path d="M199 21H198V22H199V21Z" fill="#FF2287"/>
<path d="M200 21H199V22H200V21Z" fill="#FF2287"/>
<path d="M201 21H200V22H201V21Z" fill="#FF2287"/>
<path d="M202 21H201V22H202V21Z" fill="#FF2287"/>
<path d="M203 21H202V22H203V21Z" fill="#FF2287"/>
<path d="M204 21H203V22H204V21Z" fill="#FF2287"/>
<path d="M205 21H204V22H205V21Z" fill="#FF2287"/>
<path d="M206 21H205V22H206V21Z" fill="#FF2287"/>
<path d="M207 21H206V22H207V21Z" fill="#FF2287"/>
</svg>
